<?xml version="1.0" encoding="UTF-8" standalone="no"?><svg xmlns="http://www.w3.org/2000/svg" xmlns:xlink="http://www.w3.org/1999/xlink" contentScriptType="application/ecmascript" contentStyleType="text/css" height="679px" preserveAspectRatio="none" style="width:1649px;height:679px;" version="1.1" viewBox="0 0 1649 679" width="1649px" zoomAndPan="magnify"><defs><filter height="300%" id="f1kx22qoq9hqbr" width="300%" x="-1" y="-1"><feGaussianBlur result="blurOut" stdDeviation="2.0"/><feColorMatrix in="blurOut" result="blurOut2" type="matrix" values="0 0 0 0 0 0 0 0 0 0 0 0 0 0 0 0 0 0 .4 0"/><feOffset dx="4.0" dy="4.0" in="blurOut2" result="blurOut3"/><feBlend in="SourceGraphic" in2="blurOut3" mode="normal"/></filter></defs><g><text fill="#000000" font-family="sans-serif" font-size="18" lengthAdjust="spacingAndGlyphs" textLength="0" x="826.5" y="26.708"/><text fill="#800080" font-family="sans-serif" font-size="18" font-weight="bold" lengthAdjust="spacingAndGlyphs" textLength="91" x="672.5" y="47.6611">SaC Help</text><text fill="#000000" font-family="sans-serif" font-size="18" lengthAdjust="spacingAndGlyphs" textLength="205" x="769.5" y="47.6611">- Adding a new mission</text><text fill="#000000" font-family="sans-serif" font-size="18" lengthAdjust="spacingAndGlyphs" textLength="0" x="826.5" y="68.6143"/><ellipse cx="1043.5" cy="82.8594" fill="#000000" filter="url(#f1kx22qoq9hqbr)" rx="10" ry="10" style="stroke: none; stroke-width: 1.0;"/><rect fill="#FEFECE" filter="url(#f1kx22qoq9hqbr)" height="33.9688" rx="12.5" ry="12.5" style="stroke: #A80036; stroke-width: 1.5;" width="51" x="1018" y="112.8594"/><text fill="#000000" font-family="sans-serif" font-size="12" lengthAdjust="spacingAndGlyphs" textLength="31" x="1028" y="133.998">Start</text><rect fill="#FEFECE" filter="url(#f1kx22qoq9hqbr)" height="33.9688" rx="12.5" ry="12.5" style="stroke: #A80036; stroke-width: 1.5;" width="172" x="957.5" y="166.8281"/><text fill="#000000" font-family="sans-serif" font-size="12" lengthAdjust="spacingAndGlyphs" textLength="152" x="967.5" y="187.9668">Open a terminal session</text><path d="M618.5,225.2148 L618.5,250.3477 A0,0 0 0 0 618.5,250.3477 L833.5,250.3477 A0,0 0 0 0 833.5,250.3477 L833.5,243.2148 L853.5,237.7813 L833.5,235.2148 L833.5,235.2148 L823.5,225.2148 L618.5,225.2148 A0,0 0 0 0 618.5,225.2148 " fill="#FBFB77" filter="url(#f1kx22qoq9hqbr)" style="stroke: #A80036; stroke-width: 1.0;"/><path d="M823.5,225.2148 L823.5,235.2148 L833.5,235.2148 L823.5,225.2148 " fill="#FBFB77" style="stroke: #A80036; stroke-width: 1.0;"/><text fill="#000000" font-family="sans-serif" font-size="13" lengthAdjust="spacingAndGlyphs" textLength="94" x="624.5" y="242.2817">Clone will be of</text><a href="https://github.com/your_organization/your_repository" target="_top" title="Right click to open in a new window or a new tab" xlink:actuate="onRequest" xlink:href="https://github.com/your_organization/your_repository" xlink:show="new" xlink:title="Right click to open in a new window or a new tab" xlink:type="simple"><text fill="#0000FF" font-family="sans-serif" font-size="13" lengthAdjust="spacingAndGlyphs" text-decoration="underline" textLength="96" x="722.5" y="242.2817">Your repository</text></a><rect fill="#FEFECE" filter="url(#f1kx22qoq9hqbr)" height="33.9688" rx="12.5" ry="12.5" style="stroke: #A80036; stroke-width: 1.5;" width="380" x="853.5" y="220.7969"/><text fill="#000000" font-family="sans-serif" font-size="12" lengthAdjust="spacingAndGlyphs" textLength="360" x="863.5" y="241.9355">Go to your cloned copy of your dedicated instance of SaC</text><path d="M576.5,287.332 L576.5,327.5977 L949.5,327.5977 L949.5,297.332 L939.5,287.332 L576.5,287.332 " fill="#FBFB77" filter="url(#f1kx22qoq9hqbr)" style="stroke: #A80036; stroke-width: 1.0;"/><path d="M939.5,287.332 L939.5,297.332 L949.5,297.332 L939.5,287.332 " fill="#FBFB77" style="stroke: #A80036; stroke-width: 1.0;"/><text fill="#000000" font-family="sans-serif" font-size="13" lengthAdjust="spacingAndGlyphs" textLength="239" x="582.5" y="304.3989">Missions are comprised of sequences</text><text fill="#000000" font-family="sans-serif" font-size="13" lengthAdjust="spacingAndGlyphs" textLength="352" x="582.5" y="319.5317">Sequences are defined as code in the form of UML files</text><path d="M1141,264.7656 L1141,289.8984 L1519,289.8984 L1519,274.7656 L1509,264.7656 L1141,264.7656 " fill="#FBFB77" filter="url(#f1kx22qoq9hqbr)" style="stroke: #A80036; stroke-width: 1.0;"/><path d="M1509,264.7656 L1509,274.7656 L1519,274.7656 L1509,264.7656 " fill="#FBFB77" style="stroke: #A80036; stroke-width: 1.0;"/><text fill="#000000" font-family="sans-serif" font-size="13" lengthAdjust="spacingAndGlyphs" textLength="357" x="1147" y="281.8325">Missions are defined in mission.json file in the src folder.</text><path d="M1137.5,309.8984 L1137.5,350.1641 L1522.5,350.1641 L1522.5,319.8984 L1512.5,309.8984 L1137.5,309.8984 " fill="#FBFB77" filter="url(#f1kx22qoq9hqbr)" style="stroke: #A80036; stroke-width: 1.0;"/><path d="M1512.5,309.8984 L1512.5,319.8984 L1522.5,319.8984 L1512.5,309.8984 " fill="#FBFB77" style="stroke: #A80036; stroke-width: 1.0;"/><a href="https://www.planttext.com/" target="_top" title="Right click to open PlantText in a new window or a new tab" xlink:actuate="onRequest" xlink:href="https://www.planttext.com/" xlink:show="new" xlink:title="Right click to open PlantText in a new window or a new tab" xlink:type="simple"><text fill="#0000FF" font-family="sans-serif" font-size="13" lengthAdjust="spacingAndGlyphs" text-decoration="underline" textLength="59" x="1143.5" y="326.9653">PlantText</text></a><text fill="#000000" font-family="sans-serif" font-size="13" lengthAdjust="spacingAndGlyphs" textLength="205" x="1206.5" y="326.9653">can be used to create UML files.</text><a href="https://real-world-plantuml.com" target="_top" title="Right click to open Real World PlantUml in a new window or a new tab" xlink:actuate="onRequest" xlink:href="https://real-world-plantuml.com" xlink:show="new" xlink:title="Right click to open Real World PlantUml in a new window or a new tab" xlink:type="simple"><text fill="#0000FF" font-family="sans-serif" font-size="13" lengthAdjust="spacingAndGlyphs" text-decoration="underline" textLength="128" x="1143.5" y="342.0981">Real World PlantUml</text></a><text fill="#000000" font-family="sans-serif" font-size="13" lengthAdjust="spacingAndGlyphs" textLength="232" x="1275.5" y="342.0981">provides a wide set of UML samples.</text><rect fill="#FEFECE" filter="url(#f1kx22qoq9hqbr)" height="33.9688" rx="12.5" ry="12.5" style="stroke: #A80036; stroke-width: 1.5;" width="168" x="959.5" y="290.4805"/><text fill="#000000" font-family="sans-serif" font-size="12" lengthAdjust="spacingAndGlyphs" textLength="148" x="969.5" y="311.6191">Add mission sequences</text><path d="M1168,367.0156 L1168,383.1484 L1148,387.1484 L1168,391.1484 L1168,407.2813 A0,0 0 0 0 1168,407.2813 L1637,407.2813 A0,0 0 0 0 1637,407.2813 L1637,377.0156 L1627,367.0156 L1168,367.0156 A0,0 0 0 0 1168,367.0156 " fill="#FBFB77" filter="url(#f1kx22qoq9hqbr)" style="stroke: #A80036; stroke-width: 1.0;"/><path d="M1627,367.0156 L1627,377.0156 L1637,377.0156 L1627,367.0156 " fill="#FBFB77" style="stroke: #A80036; stroke-width: 1.0;"/><a href="https://github.com/your_organization/your_repository" target="_top" title="Right click to open in a new window or a new tab" xlink:actuate="onRequest" xlink:href="https://github.com/your_organization/your_repository" xlink:show="new" xlink:title="Right click to open in a new window or a new tab" xlink:type="simple"><text fill="#0000FF" font-family="sans-serif" font-size="13" lengthAdjust="spacingAndGlyphs" text-decoration="underline" textLength="96" x="1174" y="384.0825">Your repository</text></a><text fill="#000000" font-family="sans-serif" font-size="13" lengthAdjust="spacingAndGlyphs" textLength="253" x="1274" y="384.0825">was provided with some basic unit tests</text><text fill="#000000" font-family="sans-serif" font-size="13" lengthAdjust="spacingAndGlyphs" textLength="448" x="1174" y="399.2153">As you add content be sure to ensure the test coverage is maintained</text><rect fill="#FEFECE" filter="url(#f1kx22qoq9hqbr)" height="33.9688" rx="12.5" ry="12.5" style="stroke: #A80036; stroke-width: 1.5;" width="209" x="939" y="370.1641"/><text fill="#000000" font-family="sans-serif" font-size="12" lengthAdjust="spacingAndGlyphs" textLength="189" x="949" y="391.3027">Update unit tests if necessary</text><rect fill="#FEFECE" filter="url(#f1kx22qoq9hqbr)" height="33.9688" rx="12.5" ry="12.5" style="stroke: #A80036; stroke-width: 1.5;" width="155" x="966" y="427.2813"/><text fill="#000000" font-family="sans-serif" font-size="12" lengthAdjust="spacingAndGlyphs" textLength="135" x="976" y="448.4199">Commit your changes</text><path d="M10,478.1016 L10,518.3672 A0,0 0 0 0 10,518.3672 L930,518.3672 A0,0 0 0 0 930,518.3672 L930,502.2344 L950,498.2344 L930,494.2344 L930,488.1016 L920,478.1016 L10,478.1016 A0,0 0 0 0 10,478.1016 " fill="#FBFB77" filter="url(#f1kx22qoq9hqbr)" style="stroke: #A80036; stroke-width: 1.0;"/><path d="M920,478.1016 L920,488.1016 L930,488.1016 L920,478.1016 " fill="#FBFB77" style="stroke: #A80036; stroke-width: 1.0;"/><text fill="#000000" font-family="sans-serif" font-size="13" lengthAdjust="spacingAndGlyphs" textLength="614" x="16" y="495.1685">The continuous integration pipeline automatically generates the SVG images from the UML files.</text><text fill="#000000" font-family="sans-serif" font-size="13" lengthAdjust="spacingAndGlyphs" textLength="899" x="16" y="510.3013">If you want to generate the SVG files locally you can run the generatesvg.sh script to generate the SVG images from the sequence UML files;</text><rect fill="#FEFECE" filter="url(#f1kx22qoq9hqbr)" height="33.9688" rx="12.5" ry="12.5" style="stroke: #A80036; stroke-width: 1.5;" width="187" x="950" y="481.25"/><text fill="#000000" font-family="sans-serif" font-size="12" lengthAdjust="spacingAndGlyphs" textLength="167" x="960" y="502.3887">Verify the pipeline is green</text><rect fill="#FEFECE" filter="url(#f1kx22qoq9hqbr)" height="33.9688" rx="12.5" ry="12.5" style="stroke: #A80036; stroke-width: 1.5;" width="142" x="972.5" y="538.3672"/><text fill="#000000" font-family="sans-serif" font-size="12" lengthAdjust="spacingAndGlyphs" textLength="122" x="982.5" y="559.5059">Merge the changes</text><rect fill="#FEFECE" filter="url(#f1kx22qoq9hqbr)" height="33.9688" rx="12.5" ry="12.5" style="stroke: #A80036; stroke-width: 1.5;" width="648" x="719.5" y="592.3359"/><text fill="#000000" font-family="sans-serif" font-size="12" lengthAdjust="spacingAndGlyphs" textLength="628" x="729.5" y="613.4746">If the pipeline hasn't deployed your site, deploy it manually by running the command npm run deploy</text><ellipse cx="1043.5" cy="657.3047" fill="#FFFFFF" filter="url(#f1kx22qoq9hqbr)" rx="11" ry="11" style="stroke: #000000; stroke-width: 1.0;"/><ellipse cx="1043.5" cy="657.3047" fill="#000000" rx="6" ry="6" style="stroke: #7F7F7F; stroke-width: 1.0;"/><line style="stroke: #A80036; stroke-width: 1.5;" x1="1043.5" x2="1043.5" y1="92.8594" y2="112.8594"/><polygon fill="#A80036" points="1039.5,102.8594,1043.5,112.8594,1047.5,102.8594,1043.5,106.8594" style="stroke: #A80036; stroke-width: 1.0;"/><line style="stroke: #A80036; stroke-width: 1.5;" x1="1043.5" x2="1043.5" y1="146.8281" y2="166.8281"/><polygon fill="#A80036" points="1039.5,156.8281,1043.5,166.8281,1047.5,156.8281,1043.5,160.8281" style="stroke: #A80036; stroke-width: 1.0;"/><line style="stroke: #A80036; stroke-width: 1.5;" x1="1043.5" x2="1043.5" y1="200.7969" y2="220.7969"/><polygon fill="#A80036" points="1039.5,210.7969,1043.5,220.7969,1047.5,210.7969,1043.5,214.7969" style="stroke: #A80036; stroke-width: 1.0;"/><line style="stroke: #A80036; stroke-width: 1.5;" x1="1043.5" x2="1043.5" y1="254.7656" y2="290.4805"/><polygon fill="#A80036" points="1039.5,280.4805,1043.5,290.4805,1047.5,280.4805,1043.5,284.4805" style="stroke: #A80036; stroke-width: 1.0;"/><line style="stroke: #A80036; stroke-width: 1.5;" x1="1043.5" x2="1043.5" y1="324.4492" y2="370.1641"/><polygon fill="#A80036" points="1039.5,360.1641,1043.5,370.1641,1047.5,360.1641,1043.5,364.1641" style="stroke: #A80036; stroke-width: 1.0;"/><line style="stroke: #A80036; stroke-width: 1.5;" x1="1043.5" x2="1043.5" y1="404.1328" y2="427.2813"/><polygon fill="#A80036" points="1039.5,417.2813,1043.5,427.2813,1047.5,417.2813,1043.5,421.2813" style="stroke: #A80036; stroke-width: 1.0;"/><line style="stroke: #A80036; stroke-width: 1.5;" x1="1043.5" x2="1043.5" y1="461.25" y2="481.25"/><polygon fill="#A80036" points="1039.5,471.25,1043.5,481.25,1047.5,471.25,1043.5,475.25" style="stroke: #A80036; stroke-width: 1.0;"/><line style="stroke: #A80036; stroke-width: 1.5;" x1="1043.5" x2="1043.5" y1="515.2188" y2="538.3672"/><polygon fill="#A80036" points="1039.5,528.3672,1043.5,538.3672,1047.5,528.3672,1043.5,532.3672" style="stroke: #A80036; stroke-width: 1.0;"/><line style="stroke: #A80036; stroke-width: 1.5;" x1="1043.5" x2="1043.5" y1="572.3359" y2="592.3359"/><polygon fill="#A80036" points="1039.5,582.3359,1043.5,592.3359,1047.5,582.3359,1043.5,586.3359" style="stroke: #A80036; stroke-width: 1.0;"/><line style="stroke: #A80036; stroke-width: 1.5;" x1="1043.5" x2="1043.5" y1="626.3047" y2="646.3047"/><polygon fill="#A80036" points="1039.5,636.3047,1043.5,646.3047,1047.5,636.3047,1043.5,640.3047" style="stroke: #A80036; stroke-width: 1.0;"/><!--MD5=[a8170bcbacdfb97b27c438539b27afe2]
@startuml

title

  <font color=purple><b>SaC Help</b></font> - Adding a new mission

end title

start
:Start;
:Open a terminal session;
:Go to your cloned copy of your dedicated instance of SaC;
note left
 Clone will be of [[https://github.com/your_organization/your_repository{Right click to open in a new window or a new tab} Your repository]]
end note
:Add mission sequences;
note right
  Missions are defined in mission.json file in the src folder.
end note
note left
  Missions are comprised of sequences
  Sequences are defined as code in the form of UML files
end note
note right
  [[https://www.planttext.com/{Right click to open PlantText in a new window or a new tab} PlantText]] can be used to create UML files.
  [[https://real-world-plantuml.com{Right click to open Real World PlantUml in a new window or a new tab} Real World PlantUml]] provides a wide set of UML samples.
end note
:Update unit tests if necessary;
note right
  [[https://github.com/your_organization/your_repository{Right click to open in a new window or a new tab} Your repository]] was provided with some basic unit tests
  As you add content be sure to ensure the test coverage is maintained
end note
:Commit your changes;
:Verify the pipeline is green;
note left
  The continuous integration pipeline automatically generates the SVG images from the UML files.
  If you want to generate the SVG files locally you can run the generatesvg.sh script to generate the SVG images from the sequence UML files;
end note
:Merge the changes;
:If the pipeline hasn't deployed your site, deploy it manually by running the command npm run deploy;
stop
@enduml

PlantUML version 1.2019.11(Sun Sep 22 10:02:15 GMT 2019)
(GPL source distribution)
Java Runtime: OpenJDK Runtime Environment
JVM: OpenJDK 64-Bit Server VM
Java Version: 14-ea+15
Operating System: Linux
Default Encoding: UTF-8
Language: en
Country: US
--></g></svg>