<?xml version="1.0" encoding="UTF-8" standalone="no"?><svg xmlns="http://www.w3.org/2000/svg" xmlns:xlink="http://www.w3.org/1999/xlink" contentScriptType="application/ecmascript" contentStyleType="text/css" height="663px" preserveAspectRatio="none" style="width:1073px;height:663px;" version="1.1" viewBox="0 0 1073 663" width="1073px" zoomAndPan="magnify"><defs><filter height="300%" id="fnh9aa77b3zxd" width="300%" x="-1" y="-1"><feGaussianBlur result="blurOut" stdDeviation="2.0"/><feColorMatrix in="blurOut" result="blurOut2" type="matrix" values="0 0 0 0 0 0 0 0 0 0 0 0 0 0 0 0 0 0 .4 0"/><feOffset dx="4.0" dy="4.0" in="blurOut2" result="blurOut3"/><feBlend in="SourceGraphic" in2="blurOut3" mode="normal"/></filter></defs><g><text fill="#000000" font-family="sans-serif" font-size="18" lengthAdjust="spacingAndGlyphs" textLength="0" x="541.25" y="26.708"/><text fill="#800080" font-family="sans-serif" font-size="18" font-weight="bold" lengthAdjust="spacingAndGlyphs" textLength="91" x="439.75" y="47.6611">SaC Help</text><text fill="#000000" font-family="sans-serif" font-size="18" lengthAdjust="spacingAndGlyphs" textLength="100" x="536.75" y="47.6611">- Overview</text><text fill="#000000" font-family="sans-serif" font-size="18" lengthAdjust="spacingAndGlyphs" textLength="0" x="541.25" y="68.6143"/><rect fill="#FFFFFF" filter="url(#fnh9aa77b3zxd)" height="363.7266" style="stroke: #A80036; stroke-width: 1.0;" width="10" x="366.5" y="194.2891"/><rect fill="#FFFFFF" filter="url(#fnh9aa77b3zxd)" height="305.4609" style="stroke: #A80036; stroke-width: 1.0;" width="10" x="690.5" y="223.4219"/><rect fill="#FFFFFF" filter="url(#fnh9aa77b3zxd)" height="123.6641" style="stroke: #A80036; stroke-width: 1.0;" width="10" x="808.5" y="369.0859"/><line style="stroke: #A80036; stroke-width: 1.0; stroke-dasharray: 5.0,5.0;" x1="46" x2="46" y1="163.1563" y2="576.0156"/><line style="stroke: #A80036; stroke-width: 1.0; stroke-dasharray: 5.0,5.0;" x1="371" x2="371" y1="163.1563" y2="576.0156"/><line style="stroke: #A80036; stroke-width: 1.0; stroke-dasharray: 5.0,5.0;" x1="695.5" x2="695.5" y1="163.1563" y2="576.0156"/><line style="stroke: #A80036; stroke-width: 1.0; stroke-dasharray: 5.0,5.0;" x1="813.5" x2="813.5" y1="163.1563" y2="576.0156"/><text fill="#000000" font-family="sans-serif" font-size="14" lengthAdjust="spacingAndGlyphs" textLength="71" x="8" y="159.8545">Developer</text><ellipse cx="46.5" cy="89.8594" fill="#FEFECE" filter="url(#fnh9aa77b3zxd)" rx="8" ry="8" style="stroke: #A80036; stroke-width: 2.0;"/><path d="M46.5,97.8594 L46.5,124.8594 M33.5,105.8594 L59.5,105.8594 M46.5,124.8594 L33.5,139.8594 M46.5,124.8594 L59.5,139.8594 " fill="none" filter="url(#fnh9aa77b3zxd)" style="stroke: #A80036; stroke-width: 2.0;"/><text fill="#000000" font-family="sans-serif" font-size="14" lengthAdjust="spacingAndGlyphs" textLength="71" x="8" y="588.0107">Developer</text><ellipse cx="46.5" cy="601.3125" fill="#FEFECE" filter="url(#fnh9aa77b3zxd)" rx="8" ry="8" style="stroke: #A80036; stroke-width: 2.0;"/><path d="M46.5,609.3125 L46.5,636.3125 M33.5,617.3125 L59.5,617.3125 M46.5,636.3125 L33.5,651.3125 M46.5,636.3125 L59.5,651.3125 " fill="none" filter="url(#fnh9aa77b3zxd)" style="stroke: #A80036; stroke-width: 2.0;"/><rect fill="#90EE90" filter="url(#fnh9aa77b3zxd)" height="30.2969" style="stroke: #A80036; stroke-width: 1.5;" width="55" x="342" y="127.8594"/><text fill="#000000" font-family="sans-serif" font-size="14" lengthAdjust="spacingAndGlyphs" textLength="41" x="349" y="147.8545">Setup</text><rect fill="#90EE90" filter="url(#fnh9aa77b3zxd)" height="30.2969" style="stroke: #A80036; stroke-width: 1.5;" width="55" x="342" y="575.0156"/><text fill="#000000" font-family="sans-serif" font-size="14" lengthAdjust="spacingAndGlyphs" textLength="41" x="349" y="595.0107">Setup</text><rect fill="#FFFFFF" filter="url(#fnh9aa77b3zxd)" height="30.2969" style="stroke: #A80036; stroke-width: 1.5;" width="154" x="616.5" y="127.8594"/><text fill="#000000" font-family="sans-serif" font-size="14" lengthAdjust="spacingAndGlyphs" textLength="140" x="623.5" y="147.8545">Develop Sequences</text><rect fill="#FFFFFF" filter="url(#fnh9aa77b3zxd)" height="30.2969" style="stroke: #A80036; stroke-width: 1.5;" width="154" x="616.5" y="575.0156"/><text fill="#000000" font-family="sans-serif" font-size="14" lengthAdjust="spacingAndGlyphs" textLength="140" x="623.5" y="595.0107">Develop Sequences</text><rect fill="#FFA500" filter="url(#fnh9aa77b3zxd)" height="30.2969" style="stroke: #A80036; stroke-width: 1.5;" width="54" x="784.5" y="127.8594"/><text fill="#000000" font-family="sans-serif" font-size="14" lengthAdjust="spacingAndGlyphs" textLength="40" x="791.5" y="147.8545">Users</text><rect fill="#FFA500" filter="url(#fnh9aa77b3zxd)" height="30.2969" style="stroke: #A80036; stroke-width: 1.5;" width="54" x="784.5" y="575.0156"/><text fill="#000000" font-family="sans-serif" font-size="14" lengthAdjust="spacingAndGlyphs" textLength="40" x="791.5" y="595.0107">Users</text><rect fill="#FFFFFF" filter="url(#fnh9aa77b3zxd)" height="363.7266" style="stroke: #A80036; stroke-width: 1.0;" width="10" x="366.5" y="194.2891"/><rect fill="#FFFFFF" filter="url(#fnh9aa77b3zxd)" height="305.4609" style="stroke: #A80036; stroke-width: 1.0;" width="10" x="690.5" y="223.4219"/><rect fill="#FFFFFF" filter="url(#fnh9aa77b3zxd)" height="123.6641" style="stroke: #A80036; stroke-width: 1.0;" width="10" x="808.5" y="369.0859"/><polygon fill="#A80036" points="354.5,190.2891,364.5,194.2891,354.5,198.2891,358.5,194.2891" style="stroke: #A80036; stroke-width: 1.0;"/><line style="stroke: #A80036; stroke-width: 1.0;" x1="46.5" x2="360.5" y1="194.2891" y2="194.2891"/><text fill="#000000" font-family="sans-serif" font-size="13" lengthAdjust="spacingAndGlyphs" textLength="282" x="53.5" y="189.2231">Create dedicated instance of SaC repository</text><polygon fill="#A80036" points="354.5,219.4219,364.5,223.4219,354.5,227.4219,358.5,223.4219" style="stroke: #A80036; stroke-width: 1.0;"/><line style="stroke: #A80036; stroke-width: 1.0;" x1="46.5" x2="360.5" y1="223.4219" y2="223.4219"/><text fill="#000000" font-family="sans-serif" font-size="13" lengthAdjust="spacingAndGlyphs" textLength="296" x="53.5" y="218.356">Fork and Clone new instance of SaC repository</text><polygon fill="#A80036" points="678.5,248.5547,688.5,252.5547,678.5,256.5547,682.5,252.5547" style="stroke: #A80036; stroke-width: 1.0;"/><line style="stroke: #A80036; stroke-width: 1.0;" x1="376.5" x2="684.5" y1="252.5547" y2="252.5547"/><text fill="#000000" font-family="sans-serif" font-size="13" lengthAdjust="spacingAndGlyphs" textLength="195" x="383.5" y="247.4888">Add mission(s) to mission.json</text><polygon fill="#A80036" points="678.5,277.6875,688.5,281.6875,678.5,285.6875,682.5,281.6875" style="stroke: #A80036; stroke-width: 1.0;"/><line style="stroke: #A80036; stroke-width: 1.0; stroke-dasharray: 2.0,2.0;" x1="376.5" x2="684.5" y1="281.6875" y2="281.6875"/><text fill="#000000" font-family="sans-serif" font-size="13" lengthAdjust="spacingAndGlyphs" textLength="290" x="383.5" y="276.6216">Add sequences(s) to missions in mission.json</text><polygon fill="#A80036" points="678.5,306.8203,688.5,310.8203,678.5,314.8203,682.5,310.8203" style="stroke: #A80036; stroke-width: 1.0;"/><line style="stroke: #A80036; stroke-width: 1.0; stroke-dasharray: 2.0,2.0;" x1="376.5" x2="684.5" y1="310.8203" y2="310.8203"/><text fill="#000000" font-family="sans-serif" font-size="13" lengthAdjust="spacingAndGlyphs" textLength="277" x="383.5" y="305.7544">Create sequences in form of UML diagrams</text><polygon fill="#A80036" points="678.5,335.9531,688.5,339.9531,678.5,343.9531,682.5,339.9531" style="stroke: #A80036; stroke-width: 1.0;"/><line style="stroke: #A80036; stroke-width: 1.0; stroke-dasharray: 2.0,2.0;" x1="376.5" x2="684.5" y1="339.9531" y2="339.9531"/><text fill="#000000" font-family="sans-serif" font-size="13" lengthAdjust="spacingAndGlyphs" textLength="86" x="383.5" y="334.8872">Commit code</text><polygon fill="#A80036" points="678.5,365.0859,688.5,369.0859,678.5,373.0859,682.5,369.0859" style="stroke: #A80036; stroke-width: 1.0;"/><line style="stroke: #A80036; stroke-width: 1.0; stroke-dasharray: 2.0,2.0;" x1="376.5" x2="684.5" y1="369.0859" y2="369.0859"/><text fill="#000000" font-family="sans-serif" font-size="13" lengthAdjust="spacingAndGlyphs" textLength="66" x="383.5" y="364.02">Submit PR</text><polygon fill="#A80036" points="796.5,394.2188,806.5,398.2188,796.5,402.2188,800.5,398.2188" style="stroke: #A80036; stroke-width: 1.0;"/><line style="stroke: #A80036; stroke-width: 1.0; stroke-dasharray: 2.0,2.0;" x1="700.5" x2="802.5" y1="398.2188" y2="398.2188"/><text fill="#000000" font-family="sans-serif" font-size="13" lengthAdjust="spacingAndGlyphs" textLength="60" x="707.5" y="393.1528">Merge PR</text><polygon fill="#A80036" points="796.5,423.3516,806.5,427.3516,796.5,431.3516,800.5,427.3516" style="stroke: #A80036; stroke-width: 1.0;"/><line style="stroke: #A80036; stroke-width: 1.0; stroke-dasharray: 2.0,2.0;" x1="700.5" x2="802.5" y1="427.3516" y2="427.3516"/><text fill="#000000" font-family="sans-serif" font-size="13" lengthAdjust="spacingAndGlyphs" textLength="45" x="707.5" y="422.2856">Publish</text><line style="stroke: #A80036; stroke-width: 1.0; stroke-dasharray: 2.0,2.0;" x1="818.5" x2="860.5" y1="491.75" y2="491.75"/><line style="stroke: #A80036; stroke-width: 1.0; stroke-dasharray: 2.0,2.0;" x1="860.5" x2="860.5" y1="491.75" y2="504.75"/><line style="stroke: #A80036; stroke-width: 1.0; stroke-dasharray: 2.0,2.0;" x1="813.5" x2="860.5" y1="504.75" y2="504.75"/><polygon fill="#A80036" points="823.5,500.75,813.5,504.75,823.5,508.75,819.5,504.75" style="stroke: #A80036; stroke-width: 1.0;"/><text fill="#000000" font-family="sans-serif" font-size="13" lengthAdjust="spacingAndGlyphs" textLength="232" x="825.5" y="456.4185">Consume Sequences by browsing to</text><text fill="#000000" font-family="sans-serif" font-size="13" lengthAdjust="spacingAndGlyphs" textLength="217" x="825.5" y="471.5513">GitHub pages site of new instance</text><text fill="#000000" font-family="sans-serif" font-size="13" lengthAdjust="spacingAndGlyphs" textLength="110" x="825.5" y="486.6841">of SaC repository</text><polygon fill="#A80036" points="387.5,524.8828,377.5,528.8828,387.5,532.8828,383.5,528.8828" style="stroke: #A80036; stroke-width: 1.0;"/><line style="stroke: #A80036; stroke-width: 1.0; stroke-dasharray: 2.0,2.0;" x1="381.5" x2="694.5" y1="528.8828" y2="528.8828"/><text fill="#000000" font-family="sans-serif" font-size="13" lengthAdjust="spacingAndGlyphs" textLength="136" x="393.5" y="523.8169">Sequences Published</text><polygon fill="#A80036" points="57.5,554.0156,47.5,558.0156,57.5,562.0156,53.5,558.0156" style="stroke: #A80036; stroke-width: 1.0;"/><line style="stroke: #A80036; stroke-width: 1.0; stroke-dasharray: 2.0,2.0;" x1="51.5" x2="370.5" y1="558.0156" y2="558.0156"/><text fill="#000000" font-family="sans-serif" font-size="13" lengthAdjust="spacingAndGlyphs" textLength="34" x="63.5" y="552.9497">Done</text><!--MD5=[4efeda6e9502080acaee4d55c1460f2e]
@startuml

title

  <font color=purple><b>SaC Help</b></font> - Overview

end title

actor Developer
participant "Setup" as A #lightGreen
participant "Develop Sequences" as B #white
participant "Users" as C #orange

Developer -> A: Create dedicated instance of SaC repository
activate A

Developer -> A: Fork and Clone new instance of SaC repository
activate B

A -> B: Add mission(s) to mission.json
A- -> B: Add sequences(s) to missions in mission.json
A- -> B: Create sequences in form of UML diagrams
A- -> B: Commit code
A- -> B: Submit PR
activate C

B- -> C: Merge PR
B- -> C: Publish

C- -> C: Consume Sequences by browsing to \nGitHub pages site of new instance \nof SaC repository
deactivate C

B- -> A: Sequences Published
deactivate B

A- -> Developer: Done
deactivate A

@enduml

PlantUML version 1.2020.05(Thu Mar 19 21:17:32 GMT 2020)
(GPL source distribution)
Java Runtime: OpenJDK Runtime Environment
JVM: OpenJDK 64-Bit Server VM
Java Version: 14-ea+33
Operating System: Linux
Default Encoding: UTF-8
Language: en
Country: US
--></g></svg>