<?xml version="1.0" encoding="UTF-8" standalone="no"?><svg xmlns="http://www.w3.org/2000/svg" xmlns:xlink="http://www.w3.org/1999/xlink" contentScriptType="application/ecmascript" contentStyleType="text/css" height="961px" preserveAspectRatio="none" style="width:2210px;height:961px;" version="1.1" viewBox="0 0 2210 961" width="2210px" zoomAndPan="magnify"><defs><filter height="300%" id="f1srh2iqfgdcvv" width="300%" x="-1" y="-1"><feGaussianBlur result="blurOut" stdDeviation="2.0"/><feColorMatrix in="blurOut" result="blurOut2" type="matrix" values="0 0 0 0 0 0 0 0 0 0 0 0 0 0 0 0 0 0 .4 0"/><feOffset dx="4.0" dy="4.0" in="blurOut2" result="blurOut3"/><feBlend in="SourceGraphic" in2="blurOut3" mode="normal"/></filter></defs><g><text fill="#000000" font-family="sans-serif" font-size="18" lengthAdjust="spacingAndGlyphs" textLength="0" x="1107" y="26.708"/><text fill="#800080" font-family="sans-serif" font-size="18" font-weight="bold" lengthAdjust="spacingAndGlyphs" textLength="91" x="824.5" y="47.6611">SaC Help</text><text fill="#000000" font-family="sans-serif" font-size="18" lengthAdjust="spacingAndGlyphs" textLength="462" x="921.5" y="47.6611">- Update an instance of SaC following a new release</text><text fill="#000000" font-family="sans-serif" font-size="18" lengthAdjust="spacingAndGlyphs" textLength="0" x="1107" y="68.6143"/><ellipse cx="1179.5" cy="82.8594" fill="#000000" filter="url(#f1srh2iqfgdcvv)" rx="10" ry="10" style="stroke: none; stroke-width: 1.0;"/><rect fill="#FEFECE" filter="url(#f1srh2iqfgdcvv)" height="33.9688" rx="12.5" ry="12.5" style="stroke: #A80036; stroke-width: 1.5;" width="51" x="1154" y="112.8594"/><text fill="#000000" font-family="sans-serif" font-size="12" lengthAdjust="spacingAndGlyphs" textLength="31" x="1164" y="133.998">Start</text><rect fill="#FEFECE" filter="url(#f1srh2iqfgdcvv)" height="33.9688" rx="12.5" ry="12.5" style="stroke: #A80036; stroke-width: 1.5;" width="172" x="1093.5" y="166.8281"/><text fill="#000000" font-family="sans-serif" font-size="12" lengthAdjust="spacingAndGlyphs" textLength="152" x="1103.5" y="187.9668">Open a terminal session</text><path d="M754.5,225.2148 L754.5,250.3477 A0,0 0 0 0 754.5,250.3477 L969.5,250.3477 A0,0 0 0 0 969.5,250.3477 L969.5,243.2148 L989.5,237.7813 L969.5,235.2148 L969.5,235.2148 L959.5,225.2148 L754.5,225.2148 A0,0 0 0 0 754.5,225.2148 " fill="#FBFB77" filter="url(#f1srh2iqfgdcvv)" style="stroke: #A80036; stroke-width: 1.0;"/><path d="M959.5,225.2148 L959.5,235.2148 L969.5,235.2148 L959.5,225.2148 " fill="#FBFB77" style="stroke: #A80036; stroke-width: 1.0;"/><text fill="#000000" font-family="sans-serif" font-size="13" lengthAdjust="spacingAndGlyphs" textLength="94" x="760.5" y="242.2817">Clone will be of</text><a href="https://github.com/your_organization/your_repository" target="_top" title="Right click to open in a new window or a new tab" xlink:actuate="onRequest" xlink:href="https://github.com/your_organization/your_repository" xlink:show="new" xlink:title="Right click to open in a new window or a new tab" xlink:type="simple"><text fill="#0000FF" font-family="sans-serif" font-size="13" lengthAdjust="spacingAndGlyphs" text-decoration="underline" textLength="96" x="858.5" y="242.2817">Your repository</text></a><rect fill="#FEFECE" filter="url(#f1srh2iqfgdcvv)" height="33.9688" rx="12.5" ry="12.5" style="stroke: #A80036; stroke-width: 1.5;" width="380" x="989.5" y="220.7969"/><text fill="#000000" font-family="sans-serif" font-size="12" lengthAdjust="spacingAndGlyphs" textLength="360" x="999.5" y="241.9355">Go to your cloned copy of your dedicated instance of SaC</text><rect fill="#FEFECE" filter="url(#f1srh2iqfgdcvv)" height="33.9688" rx="12.5" ry="12.5" style="stroke: #A80036; stroke-width: 1.5;" width="176" x="1091.5" y="274.7656"/><text fill="#000000" font-family="sans-serif" font-size="12" lengthAdjust="spacingAndGlyphs" textLength="156" x="1101.5" y="295.9043">Back up your cloned files</text><rect fill="#FEFECE" filter="url(#f1srh2iqfgdcvv)" height="33.9688" rx="12.5" ry="12.5" style="stroke: #A80036; stroke-width: 1.5;" width="496" x="931.5" y="328.7344"/><text fill="#000000" font-family="sans-serif" font-size="12" lengthAdjust="spacingAndGlyphs" textLength="254" x="941.5" y="349.873">Get the updated version of SaC from the</text><a href="https://github.com/dxc-technology/Sequences-as-Code/releases" target="_top" title="Right click to open in a new window or a new tab" xlink:actuate="onRequest" xlink:href="https://github.com/dxc-technology/Sequences-as-Code/releases" xlink:show="new" xlink:title="Right click to open in a new window or a new tab" xlink:type="simple"><text fill="#0000FF" font-family="sans-serif" font-size="12" lengthAdjust="spacingAndGlyphs" text-decoration="underline" textLength="82" x="1199.5" y="349.873">Releases tab</text></a><text fill="#000000" font-family="sans-serif" font-size="12" lengthAdjust="spacingAndGlyphs" textLength="132" x="1285.5" y="349.873">of the SaC repository</text><path d="M1537,387.1211 L1537,395.6875 L1517,399.6875 L1537,403.6875 L1537,412.2539 A0,0 0 0 0 1537,412.2539 L2198,412.2539 A0,0 0 0 0 2198,412.2539 L2198,397.1211 L2188,387.1211 L1537,387.1211 A0,0 0 0 0 1537,387.1211 " fill="#FBFB77" filter="url(#f1srh2iqfgdcvv)" style="stroke: #A80036; stroke-width: 1.0;"/><path d="M2188,387.1211 L2188,397.1211 L2198,397.1211 L2188,387.1211 " fill="#FBFB77" style="stroke: #A80036; stroke-width: 1.0;"/><text fill="#000000" font-family="sans-serif" font-size="13" lengthAdjust="spacingAndGlyphs" textLength="640" x="1543" y="404.188">The base url for generated site needs to be set correctly for your missions and sequences to render.</text><rect fill="#FEFECE" filter="url(#f1srh2iqfgdcvv)" height="33.9688" rx="12.5" ry="12.5" style="stroke: #A80036; stroke-width: 1.5;" width="675" x="842" y="382.7031"/><text fill="#000000" font-family="sans-serif" font-size="12" lengthAdjust="spacingAndGlyphs" textLength="655" x="852" y="403.8418">Update the homepage value in the package.json file with the (case sensitive) address of your repository</text><path d="M106.5,441.0898 L106.5,466.2227 A0,0 0 0 0 106.5,466.2227 L822.5,466.2227 A0,0 0 0 0 822.5,466.2227 L822.5,459.0898 L842.5,453.6563 L822.5,451.0898 L822.5,451.0898 L812.5,441.0898 L106.5,441.0898 A0,0 0 0 0 106.5,441.0898 " fill="#FBFB77" filter="url(#f1srh2iqfgdcvv)" style="stroke: #A80036; stroke-width: 1.0;"/><path d="M812.5,441.0898 L812.5,451.0898 L822.5,451.0898 L812.5,441.0898 " fill="#FBFB77" style="stroke: #A80036; stroke-width: 1.0;"/><text fill="#000000" font-family="sans-serif" font-size="13" lengthAdjust="spacingAndGlyphs" textLength="695" x="112.5" y="458.1567">You can ignore the references in the sample uml and svg files as you presumably will be replacing those files.</text><rect fill="#FEFECE" filter="url(#f1srh2iqfgdcvv)" height="33.9688" rx="12.5" ry="12.5" style="stroke: #A80036; stroke-width: 1.5;" width="674" x="842.5" y="436.6719"/><text fill="#000000" font-family="sans-serif" font-size="12" lengthAdjust="spacingAndGlyphs" textLength="237" x="852.5" y="457.8105">Find and replace all references to the</text><a href="https://github.com/dxc-technology/Sequences-as-Code" target="_top" title="Right click to open in a new window or a new tab" xlink:actuate="onRequest" xlink:href="https://github.com/dxc-technology/Sequences-as-Code" xlink:show="new" xlink:title="Right click to open in a new window or a new tab" xlink:type="simple"><text fill="#0000FF" font-family="sans-serif" font-size="12" lengthAdjust="spacingAndGlyphs" text-decoration="underline" textLength="91" x="1093.5" y="457.8105">SaC repository</text></a><text fill="#000000" font-family="sans-serif" font-size="12" lengthAdjust="spacingAndGlyphs" textLength="318" x="1188.5" y="457.8105">with the address of your instance of the repository</text><path d="M1420,495.0586 L1420,503.625 L1400,507.625 L1420,511.625 L1420,520.1914 A0,0 0 0 0 1420,520.1914 L1972,520.1914 A0,0 0 0 0 1972,520.1914 L1972,505.0586 L1962,495.0586 L1420,495.0586 A0,0 0 0 0 1420,495.0586 " fill="#FBFB77" filter="url(#f1srh2iqfgdcvv)" style="stroke: #A80036; stroke-width: 1.0;"/><path d="M1962,495.0586 L1962,505.0586 L1972,505.0586 L1962,495.0586 " fill="#FBFB77" style="stroke: #A80036; stroke-width: 1.0;"/><text fill="#000000" font-family="sans-serif" font-size="13" lengthAdjust="spacingAndGlyphs" textLength="531" x="1426" y="512.1255">This is to install any new or updated dependencies in the local node_modules folder</text><rect fill="#FEFECE" filter="url(#f1srh2iqfgdcvv)" height="33.9688" rx="12.5" ry="12.5" style="stroke: #A80036; stroke-width: 1.5;" width="441" x="959" y="490.6406"/><text fill="#000000" font-family="sans-serif" font-size="12" lengthAdjust="spacingAndGlyphs" textLength="350" x="969" y="511.7793">Open a terminal session, go to your local folder and run</text><text fill="#000000" font-family="sans-serif" font-size="12" font-style="italic" lengthAdjust="spacingAndGlyphs" textLength="67" x="1323" y="511.7793">npm install</text><path d="M1329,541.4609 L1329,557.5938 L1309,561.5938 L1329,565.5938 L1329,581.7266 A0,0 0 0 0 1329,581.7266 L1868,581.7266 A0,0 0 0 0 1868,581.7266 L1868,551.4609 L1858,541.4609 L1329,541.4609 A0,0 0 0 0 1329,541.4609 " fill="#FBFB77" filter="url(#f1srh2iqfgdcvv)" style="stroke: #A80036; stroke-width: 1.0;"/><path d="M1858,541.4609 L1858,551.4609 L1868,551.4609 L1858,541.4609 " fill="#FBFB77" style="stroke: #A80036; stroke-width: 1.0;"/><text fill="#000000" font-family="sans-serif" font-size="13" lengthAdjust="spacingAndGlyphs" textLength="381" x="1335" y="558.5278">Re configure your missions and sequences in missions.json.</text><text fill="#000000" font-family="sans-serif" font-size="13" lengthAdjust="spacingAndGlyphs" textLength="518" x="1335" y="573.6606">Re add your sequence uml and svg files to the appropriate sequences sub-folder.</text><rect fill="#FEFECE" filter="url(#f1srh2iqfgdcvv)" height="33.9688" rx="12.5" ry="12.5" style="stroke: #A80036; stroke-width: 1.5;" width="259" x="1050" y="544.6094"/><text fill="#000000" font-family="sans-serif" font-size="12" lengthAdjust="spacingAndGlyphs" textLength="239" x="1060" y="565.748">Reapply your missions and sequences</text><path d="M10,598.5781 L10,638.8438 A0,0 0 0 0 10,638.8438 L780,638.8438 A0,0 0 0 0 780,638.8438 L780,622.7109 L800,618.7109 L780,614.7109 L780,608.5781 L770,598.5781 L10,598.5781 A0,0 0 0 0 10,598.5781 " fill="#FBFB77" filter="url(#f1srh2iqfgdcvv)" style="stroke: #A80036; stroke-width: 1.0;"/><path d="M770,598.5781 L770,608.5781 L780,608.5781 L770,598.5781 " fill="#FBFB77" style="stroke: #A80036; stroke-width: 1.0;"/><text fill="#000000" font-family="sans-serif" font-size="13" lengthAdjust="spacingAndGlyphs" textLength="334" x="16" y="615.645">Delete the entry for yourmission from missions.json.</text><text fill="#000000" font-family="sans-serif" font-size="13" lengthAdjust="spacingAndGlyphs" textLength="749" x="16" y="630.7778">Delete the associated images/yourmission.svg and uml/yourmission.uml files from the sequences/yourmission folder.</text><rect fill="#FEFECE" filter="url(#f1srh2iqfgdcvv)" height="33.9688" rx="12.5" ry="12.5" style="stroke: #A80036; stroke-width: 1.5;" width="759" x="800" y="601.7266"/><text fill="#000000" font-family="sans-serif" font-size="12" lengthAdjust="spacingAndGlyphs" textLength="644" x="810" y="622.8652">Remove the sample mission and sequence, entitled Your mission, provided with the new release of the</text><a href="https://github.com/dxc-technology/Sequences-as-Code" target="_top" title="Right click to open in a new window or a new tab" xlink:actuate="onRequest" xlink:href="https://github.com/dxc-technology/Sequences-as-Code" xlink:show="new" xlink:title="Right click to open in a new window or a new tab" xlink:type="simple"><text fill="#0000FF" font-family="sans-serif" font-size="12" lengthAdjust="spacingAndGlyphs" text-decoration="underline" textLength="91" x="1458" y="622.8652">SaC repository</text></a><rect fill="#FEFECE" filter="url(#f1srh2iqfgdcvv)" height="33.9688" rx="12.5" ry="12.5" style="stroke: #A80036; stroke-width: 1.5;" width="108" x="1125.5" y="658.8438"/><text fill="#000000" font-family="sans-serif" font-size="12" lengthAdjust="spacingAndGlyphs" textLength="88" x="1135.5" y="679.9824">Run unit tests</text><rect fill="#FEFECE" filter="url(#f1srh2iqfgdcvv)" height="33.9688" rx="12.5" ry="12.5" style="stroke: #A80036; stroke-width: 1.5;" width="316" x="1021.5" y="712.8125"/><text fill="#000000" font-family="sans-serif" font-size="12" lengthAdjust="spacingAndGlyphs" textLength="296" x="1031.5" y="733.9512">Update any unit tests that need to be updated</text><rect fill="#FEFECE" filter="url(#f1srh2iqfgdcvv)" height="33.9688" rx="12.5" ry="12.5" style="stroke: #A80036; stroke-width: 1.5;" width="155" x="1102" y="766.7813"/><text fill="#000000" font-family="sans-serif" font-size="12" lengthAdjust="spacingAndGlyphs" textLength="135" x="1112" y="787.9199">Commit your changes</text><rect fill="#FEFECE" filter="url(#f1srh2iqfgdcvv)" height="33.9688" rx="12.5" ry="12.5" style="stroke: #A80036; stroke-width: 1.5;" width="62" x="1148.5" y="820.75"/><text fill="#000000" font-family="sans-serif" font-size="12" lengthAdjust="spacingAndGlyphs" textLength="42" x="1158.5" y="841.8887">Deploy</text><rect fill="#FEFECE" filter="url(#f1srh2iqfgdcvv)" height="33.9688" rx="12.5" ry="12.5" style="stroke: #A80036; stroke-width: 1.5;" width="615" x="872" y="874.7188"/><text fill="#000000" font-family="sans-serif" font-size="12" lengthAdjust="spacingAndGlyphs" textLength="364" x="882" y="895.8574">Verify your site is up and running. It should be available at</text><a href="https://github.com/pages/your_organization/your_repository" target="_top" title="Right click to open in a new window or a new tab" xlink:actuate="onRequest" xlink:href="https://github.com/pages/your_organization/your_repository" xlink:show="new" xlink:title="Right click to open in a new window or a new tab" xlink:type="simple"><text fill="#0000FF" font-family="sans-serif" font-size="12" lengthAdjust="spacingAndGlyphs" text-decoration="underline" textLength="223" x="1250" y="895.8574">Your repositories GitHub pages site</text></a><text fill="#000000" font-family="sans-serif" font-size="12" lengthAdjust="spacingAndGlyphs" textLength="4" x="1473" y="895.8574">;</text><ellipse cx="1179.5" cy="939.6875" fill="#FFFFFF" filter="url(#f1srh2iqfgdcvv)" rx="11" ry="11" style="stroke: #000000; stroke-width: 1.0;"/><ellipse cx="1179.5" cy="939.6875" fill="#000000" rx="6" ry="6" style="stroke: #7F7F7F; stroke-width: 1.0;"/><line style="stroke: #A80036; stroke-width: 1.5;" x1="1179.5" x2="1179.5" y1="92.8594" y2="112.8594"/><polygon fill="#A80036" points="1175.5,102.8594,1179.5,112.8594,1183.5,102.8594,1179.5,106.8594" style="stroke: #A80036; stroke-width: 1.0;"/><line style="stroke: #A80036; stroke-width: 1.5;" x1="1179.5" x2="1179.5" y1="146.8281" y2="166.8281"/><polygon fill="#A80036" points="1175.5,156.8281,1179.5,166.8281,1183.5,156.8281,1179.5,160.8281" style="stroke: #A80036; stroke-width: 1.0;"/><line style="stroke: #A80036; stroke-width: 1.5;" x1="1179.5" x2="1179.5" y1="200.7969" y2="220.7969"/><polygon fill="#A80036" points="1175.5,210.7969,1179.5,220.7969,1183.5,210.7969,1179.5,214.7969" style="stroke: #A80036; stroke-width: 1.0;"/><line style="stroke: #A80036; stroke-width: 1.5;" x1="1179.5" x2="1179.5" y1="254.7656" y2="274.7656"/><polygon fill="#A80036" points="1175.5,264.7656,1179.5,274.7656,1183.5,264.7656,1179.5,268.7656" style="stroke: #A80036; stroke-width: 1.0;"/><line style="stroke: #A80036; stroke-width: 1.5;" x1="1179.5" x2="1179.5" y1="308.7344" y2="328.7344"/><polygon fill="#A80036" points="1175.5,318.7344,1179.5,328.7344,1183.5,318.7344,1179.5,322.7344" style="stroke: #A80036; stroke-width: 1.0;"/><line style="stroke: #A80036; stroke-width: 1.5;" x1="1179.5" x2="1179.5" y1="362.7031" y2="382.7031"/><polygon fill="#A80036" points="1175.5,372.7031,1179.5,382.7031,1183.5,372.7031,1179.5,376.7031" style="stroke: #A80036; stroke-width: 1.0;"/><line style="stroke: #A80036; stroke-width: 1.5;" x1="1179.5" x2="1179.5" y1="416.6719" y2="436.6719"/><polygon fill="#A80036" points="1175.5,426.6719,1179.5,436.6719,1183.5,426.6719,1179.5,430.6719" style="stroke: #A80036; stroke-width: 1.0;"/><line style="stroke: #A80036; stroke-width: 1.5;" x1="1179.5" x2="1179.5" y1="470.6406" y2="490.6406"/><polygon fill="#A80036" points="1175.5,480.6406,1179.5,490.6406,1183.5,480.6406,1179.5,484.6406" style="stroke: #A80036; stroke-width: 1.0;"/><line style="stroke: #A80036; stroke-width: 1.5;" x1="1179.5" x2="1179.5" y1="524.6094" y2="544.6094"/><polygon fill="#A80036" points="1175.5,534.6094,1179.5,544.6094,1183.5,534.6094,1179.5,538.6094" style="stroke: #A80036; stroke-width: 1.0;"/><line style="stroke: #A80036; stroke-width: 1.5;" x1="1179.5" x2="1179.5" y1="578.5781" y2="601.7266"/><polygon fill="#A80036" points="1175.5,591.7266,1179.5,601.7266,1183.5,591.7266,1179.5,595.7266" style="stroke: #A80036; stroke-width: 1.0;"/><line style="stroke: #A80036; stroke-width: 1.5;" x1="1179.5" x2="1179.5" y1="635.6953" y2="658.8438"/><polygon fill="#A80036" points="1175.5,648.8438,1179.5,658.8438,1183.5,648.8438,1179.5,652.8438" style="stroke: #A80036; stroke-width: 1.0;"/><line style="stroke: #A80036; stroke-width: 1.5;" x1="1179.5" x2="1179.5" y1="692.8125" y2="712.8125"/><polygon fill="#A80036" points="1175.5,702.8125,1179.5,712.8125,1183.5,702.8125,1179.5,706.8125" style="stroke: #A80036; stroke-width: 1.0;"/><line style="stroke: #A80036; stroke-width: 1.5;" x1="1179.5" x2="1179.5" y1="746.7813" y2="766.7813"/><polygon fill="#A80036" points="1175.5,756.7813,1179.5,766.7813,1183.5,756.7813,1179.5,760.7813" style="stroke: #A80036; stroke-width: 1.0;"/><line style="stroke: #A80036; stroke-width: 1.5;" x1="1179.5" x2="1179.5" y1="800.75" y2="820.75"/><polygon fill="#A80036" points="1175.5,810.75,1179.5,820.75,1183.5,810.75,1179.5,814.75" style="stroke: #A80036; stroke-width: 1.0;"/><line style="stroke: #A80036; stroke-width: 1.5;" x1="1179.5" x2="1179.5" y1="854.7188" y2="874.7188"/><polygon fill="#A80036" points="1175.5,864.7188,1179.5,874.7188,1183.5,864.7188,1179.5,868.7188" style="stroke: #A80036; stroke-width: 1.0;"/><line style="stroke: #A80036; stroke-width: 1.5;" x1="1179.5" x2="1179.5" y1="908.6875" y2="928.6875"/><polygon fill="#A80036" points="1175.5,918.6875,1179.5,928.6875,1183.5,918.6875,1179.5,922.6875" style="stroke: #A80036; stroke-width: 1.0;"/><!--MD5=[54e6de2b1ac4cf1dd2f56695c40d10fa]
@startuml

title

  <font color=purple><b>SaC Help</b></font> - Update an instance of SaC following a new release

end title

start
:Start;
:Open a terminal session;
:Go to your cloned copy of your dedicated instance of SaC;
note left
 Clone will be of [[https://github.com/your_organization/your_repository{Right click to open in a new window or a new tab} Your repository]]
end note
:Back up your cloned files;
:Get the updated version of SaC from the [[https://github.com/dxc-technology/Sequences-as-Code/releases{Right click to open in a new window or a new tab} Releases tab]] of the SaC repository;
:Update the homepage value in the package.json file with the (case sensitive) address of your repository;
note right
  The base url for generated site needs to be set correctly for your missions and sequences to render.
end note
:Find and replace all references to the [[https://github.com/dxc-technology/Sequences-as-Code{Right click to open in a new window or a new tab} SaC repository]] with the address of your instance of the repository;
note left
  You can ignore the references in the sample uml and svg files as you presumably will be replacing those files.
end note
:Open a terminal session, go to your local folder and run <i>npm install</i>;
note right
  This is to install any new or updated dependencies in the local node_modules folder
end note
:Reapply your missions and sequences;
note right
  Re configure your missions and sequences in missions.json.
  Re add your sequence uml and svg files to the appropriate sequences sub-folder.
end note
:Remove the sample mission and sequence, entitled Your mission, provided with the new release of the [[https://github.com/dxc-technology/Sequences-as-Code{Right click to open in a new window or a new tab} SaC repository]];
note left
  Delete the entry for yourmission from missions.json.
  Delete the associated images/yourmission.svg and uml/yourmission.uml files from the sequences/yourmission folder.
end note
:Run unit tests;
:Update any unit tests that need to be updated;
:Commit your changes;
:Deploy;
:Verify your site is up and running. It should be available at [[https://github.com/pages/your_organization/your_repository{Right click to open in a new window or a new tab} Your repositories GitHub pages site]];;
stop
@enduml

PlantUML version 1.2019.11(Sun Sep 22 10:02:15 GMT 2019)
(GPL source distribution)
Java Runtime: OpenJDK Runtime Environment
JVM: OpenJDK 64-Bit Server VM
Java Version: 14-ea+15
Operating System: Linux
Default Encoding: UTF-8
Language: en
Country: US
--></g></svg>