<?xml version="1.0" encoding="UTF-8" standalone="no"?><svg xmlns="http://www.w3.org/2000/svg" xmlns:xlink="http://www.w3.org/1999/xlink" contentScriptType="application/ecmascript" contentStyleType="text/css" height="1126px" preserveAspectRatio="none" style="width:2254px;height:1126px;" version="1.1" viewBox="0 0 2254 1126" width="2254px" zoomAndPan="magnify"><defs><filter height="300%" id="fc8m1gkw5t7xw" width="300%" x="-1" y="-1"><feGaussianBlur result="blurOut" stdDeviation="2.0"/><feColorMatrix in="blurOut" result="blurOut2" type="matrix" values="0 0 0 0 0 0 0 0 0 0 0 0 0 0 0 0 0 0 .4 0"/><feOffset dx="4.0" dy="4.0" in="blurOut2" result="blurOut3"/><feBlend in="SourceGraphic" in2="blurOut3" mode="normal"/></filter></defs><g><text fill="#000000" font-family="sans-serif" font-size="18" lengthAdjust="spacingAndGlyphs" textLength="0" x="1129.25" y="26.708"/><text fill="#800080" font-family="sans-serif" font-size="18" font-weight="bold" lengthAdjust="spacingAndGlyphs" textLength="91" x="902.75" y="47.6611">SaC Help</text><text fill="#000000" font-family="sans-serif" font-size="18" lengthAdjust="spacingAndGlyphs" textLength="350" x="999.75" y="47.6611">- Create new dedicated instance of SaC</text><text fill="#000000" font-family="sans-serif" font-size="18" lengthAdjust="spacingAndGlyphs" textLength="0" x="1129.25" y="68.6143"/><ellipse cx="1209.5" cy="82.8594" fill="#000000" filter="url(#fc8m1gkw5t7xw)" rx="10" ry="10" style="stroke: none; stroke-width: 1.0;"/><rect fill="#FEFECE" filter="url(#fc8m1gkw5t7xw)" height="33.9688" rx="12.5" ry="12.5" style="stroke: #A80036; stroke-width: 1.5;" width="51" x="1184" y="112.8594"/><text fill="#000000" font-family="sans-serif" font-size="12" lengthAdjust="spacingAndGlyphs" textLength="31" x="1194" y="133.998">Start</text><path d="M593,171.2461 L593,196.3789 A0,0 0 0 0 593,196.3789 L1094,196.3789 A0,0 0 0 0 1094,196.3789 L1094,189.2461 L1114,183.8125 L1094,181.2461 L1094,181.2461 L1084,171.2461 L593,171.2461 A0,0 0 0 0 593,171.2461 " fill="#FBFB77" filter="url(#fc8m1gkw5t7xw)" style="stroke: #A80036; stroke-width: 1.0;"/><path d="M1084,171.2461 L1084,181.2461 L1094,181.2461 L1084,171.2461 " fill="#FBFB77" style="stroke: #A80036; stroke-width: 1.0;"/><text fill="#000000" font-family="sans-serif" font-size="13" lengthAdjust="spacingAndGlyphs" textLength="480" x="599" y="188.313">Prerequisites listed in a dedicated sequence diagram under the help menu.</text><rect fill="#FEFECE" filter="url(#fc8m1gkw5t7xw)" height="33.9688" rx="12.5" ry="12.5" style="stroke: #A80036; stroke-width: 1.5;" width="191" x="1114" y="166.8281"/><text fill="#000000" font-family="sans-serif" font-size="12" lengthAdjust="spacingAndGlyphs" textLength="171" x="1124" y="187.9668">Complete the prerequisites</text><path d="M1370,210.7969 L1370,242.0625 L1350,246.0625 L1370,250.0625 L1370,281.3281 A0,0 0 0 0 1370,281.3281 L1586,281.3281 A0,0 0 0 0 1586,281.3281 L1586,220.7969 L1576,210.7969 L1370,210.7969 A0,0 0 0 0 1370,210.7969 " fill="#FBFB77" filter="url(#fc8m1gkw5t7xw)" style="stroke: #A80036; stroke-width: 1.0;"/><path d="M1576,210.7969 L1576,220.7969 L1586,220.7969 L1576,210.7969 " fill="#FBFB77" style="stroke: #A80036; stroke-width: 1.0;"/><text fill="#000000" font-family="sans-serif" font-size="13" lengthAdjust="spacingAndGlyphs" textLength="169" x="1376" y="227.8638">Protect the master branch</text><text fill="#000000" font-family="sans-serif" font-size="13" lengthAdjust="spacingAndGlyphs" textLength="195" x="1376" y="242.9966">Enable branch protection rules</text><text fill="#000000" font-family="sans-serif" font-size="13" lengthAdjust="spacingAndGlyphs" textLength="146" x="1376" y="258.1294">Require reviews on PRs</text><text fill="#000000" font-family="sans-serif" font-size="13" lengthAdjust="spacingAndGlyphs" textLength="52" x="1376" y="273.2622">etc. etc.</text><rect fill="#FEFECE" filter="url(#fc8m1gkw5t7xw)" height="33.9688" rx="12.5" ry="12.5" style="stroke: #A80036; stroke-width: 1.5;" width="281" x="1069" y="229.0781"/><text fill="#000000" font-family="sans-serif" font-size="12" lengthAdjust="spacingAndGlyphs" textLength="261" x="1079" y="250.2168">Create and configure a new git repository</text><path d="M249,291.3281 L249,422.3906 A0,0 0 0 0 249,422.3906 L904,422.3906 A0,0 0 0 0 904,422.3906 L904,360.8594 L924,356.8594 L904,352.8594 L904,301.3281 L894,291.3281 L249,291.3281 A0,0 0 0 0 249,291.3281 " fill="#FBFB77" filter="url(#fc8m1gkw5t7xw)" style="stroke: #A80036; stroke-width: 1.0;"/><path d="M894,291.3281 L894,301.3281 L904,301.3281 L894,291.3281 " fill="#FBFB77" style="stroke: #A80036; stroke-width: 1.0;"/><a href="https://github.com/dxc-technology/Sequences-as-Code" target="_top" title="Right click to open in a new window or a new tab" xlink:actuate="onRequest" xlink:href="https://github.com/dxc-technology/Sequences-as-Code" xlink:show="new" xlink:title="Right click to open in a new window or a new tab" xlink:type="simple"><text fill="#0000FF" font-family="sans-serif" font-size="13" lengthAdjust="spacingAndGlyphs" text-decoration="underline" textLength="105" x="255" y="308.395">SaC repositories</text></a><text fill="#000000" font-family="sans-serif" font-size="13" lengthAdjust="spacingAndGlyphs" textLength="153" x="364" y="308.395">default pipeline includes</text><text fill="#000000" font-family="sans-serif" font-size="13" lengthAdjust="spacingAndGlyphs" textLength="175" x="255" y="323.5278">- markdown spelling checks</text><text fill="#000000" font-family="sans-serif" font-size="13" lengthAdjust="spacingAndGlyphs" textLength="188" x="255" y="338.6606">- dockerfile, json and js linting</text><text fill="#000000" font-family="sans-serif" font-size="13" lengthAdjust="spacingAndGlyphs" textLength="306" x="255" y="353.7935">- basic unit tests with a high degree of coverage</text><text fill="#000000" font-family="sans-serif" font-size="13" lengthAdjust="spacingAndGlyphs" textLength="111" x="255" y="368.9263">- coverage report</text><text fill="#000000" font-family="sans-serif" font-size="13" lengthAdjust="spacingAndGlyphs" textLength="144" x="255" y="384.0591">- uml syntax validation</text><text fill="#000000" font-family="sans-serif" font-size="13" lengthAdjust="spacingAndGlyphs" textLength="569" x="255" y="399.1919">- SVG diagrams generated from the sequence UML files and are committed to repository</text><text fill="#000000" font-family="sans-serif" font-size="13" lengthAdjust="spacingAndGlyphs" textLength="634" x="255" y="414.3247">- code to deploy your site to the repositories GitHub pages site when the Master branch is updated.</text><rect fill="#FEFECE" filter="url(#fc8m1gkw5t7xw)" height="33.9688" rx="12.5" ry="12.5" style="stroke: #A80036; stroke-width: 1.5;" width="571" x="924" y="339.875"/><text fill="#000000" font-family="sans-serif" font-size="12" lengthAdjust="spacingAndGlyphs" textLength="456" x="934" y="361.0137">Seed the repository with the current release of SaC, which is available at</text><a href="https://github.com/dxc-technology/Sequences-as-Code" target="_top" title="Right click to open in a new window or a new tab" xlink:actuate="onRequest" xlink:href="https://github.com/dxc-technology/Sequences-as-Code" xlink:show="new" xlink:title="Right click to open in a new window or a new tab" xlink:type="simple"><text fill="#0000FF" font-family="sans-serif" font-size="12" lengthAdjust="spacingAndGlyphs" text-decoration="underline" textLength="91" x="1394" y="361.0137">SaC repository</text></a><rect fill="#FEFECE" filter="url(#fc8m1gkw5t7xw)" height="33.9688" rx="12.5" ry="12.5" style="stroke: #A80036; stroke-width: 1.5;" width="335" x="1042" y="442.3906"/><text fill="#000000" font-family="sans-serif" font-size="12" lengthAdjust="spacingAndGlyphs" textLength="216" x="1052" y="463.5293">Fork your newly created repository</text><a href="https://github.com/your_organization/your_repository" target="_top" title="Right click to open in a new window or a new tab" xlink:actuate="onRequest" xlink:href="https://github.com/your_organization/your_repository" xlink:show="new" xlink:title="Right click to open in a new window or a new tab" xlink:type="simple"><text fill="#0000FF" font-family="sans-serif" font-size="12" lengthAdjust="spacingAndGlyphs" text-decoration="underline" textLength="95" x="1272" y="463.5293">Your repository</text></a><rect fill="#FEFECE" filter="url(#fc8m1gkw5t7xw)" height="33.9688" rx="12.5" ry="12.5" style="stroke: #A80036; stroke-width: 1.5;" width="255" x="1082" y="496.3594"/><text fill="#000000" font-family="sans-serif" font-size="12" lengthAdjust="spacingAndGlyphs" textLength="235" x="1092" y="517.498">Clone your fork on your local machine</text><path d="M1581.5,554.7461 L1581.5,563.3125 L1561.5,567.3125 L1581.5,571.3125 L1581.5,579.8789 A0,0 0 0 0 1581.5,579.8789 L2242.5,579.8789 A0,0 0 0 0 2242.5,579.8789 L2242.5,564.7461 L2232.5,554.7461 L1581.5,554.7461 A0,0 0 0 0 1581.5,554.7461 " fill="#FBFB77" filter="url(#fc8m1gkw5t7xw)" style="stroke: #A80036; stroke-width: 1.0;"/><path d="M2232.5,554.7461 L2232.5,564.7461 L2242.5,564.7461 L2232.5,554.7461 " fill="#FBFB77" style="stroke: #A80036; stroke-width: 1.0;"/><text fill="#000000" font-family="sans-serif" font-size="13" lengthAdjust="spacingAndGlyphs" textLength="640" x="1587.5" y="571.813">The base url for generated site needs to be set correctly for your missions and sequences to render.</text><rect fill="#FEFECE" filter="url(#fc8m1gkw5t7xw)" height="33.9688" rx="12.5" ry="12.5" style="stroke: #A80036; stroke-width: 1.5;" width="704" x="857.5" y="550.3281"/><text fill="#000000" font-family="sans-serif" font-size="12" lengthAdjust="spacingAndGlyphs" textLength="684" x="867.5" y="571.4668">Update the homepage value in the package.json file with the (case sensitive) address of your new repository</text><path d="M140.5,608.7148 L140.5,633.8477 A0,0 0 0 0 140.5,633.8477 L856.5,633.8477 A0,0 0 0 0 856.5,633.8477 L856.5,626.7148 L876.5,621.2813 L856.5,618.7148 L856.5,618.7148 L846.5,608.7148 L140.5,608.7148 A0,0 0 0 0 140.5,608.7148 " fill="#FBFB77" filter="url(#fc8m1gkw5t7xw)" style="stroke: #A80036; stroke-width: 1.0;"/><path d="M846.5,608.7148 L846.5,618.7148 L856.5,618.7148 L846.5,608.7148 " fill="#FBFB77" style="stroke: #A80036; stroke-width: 1.0;"/><text fill="#000000" font-family="sans-serif" font-size="13" lengthAdjust="spacingAndGlyphs" textLength="695" x="146.5" y="625.7817">You can ignore the references in the sample uml and svg files as you presumably will be replacing those files.</text><rect fill="#FEFECE" filter="url(#fc8m1gkw5t7xw)" height="33.9688" rx="12.5" ry="12.5" style="stroke: #A80036; stroke-width: 1.5;" width="666" x="876.5" y="604.2969"/><text fill="#000000" font-family="sans-serif" font-size="12" lengthAdjust="spacingAndGlyphs" textLength="237" x="886.5" y="625.4355">Find and replace all references to the</text><a href="https://github.com/dxc-technology/Sequences-as-Code" target="_top" title="Right click to open in a new window or a new tab" xlink:actuate="onRequest" xlink:href="https://github.com/dxc-technology/Sequences-as-Code" xlink:show="new" xlink:title="Right click to open in a new window or a new tab" xlink:type="simple"><text fill="#0000FF" font-family="sans-serif" font-size="12" lengthAdjust="spacingAndGlyphs" text-decoration="underline" textLength="91" x="1127.5" y="625.4355">SaC repository</text></a><text fill="#000000" font-family="sans-serif" font-size="12" lengthAdjust="spacingAndGlyphs" textLength="310" x="1222.5" y="625.4355">with the address of your instance of the repository</text><path d="M1450,662.6836 L1450,671.25 L1430,675.25 L1450,679.25 L1450,687.8164 A0,0 0 0 0 1450,687.8164 L1897,687.8164 A0,0 0 0 0 1897,687.8164 L1897,672.6836 L1887,662.6836 L1450,662.6836 A0,0 0 0 0 1450,662.6836 " fill="#FBFB77" filter="url(#fc8m1gkw5t7xw)" style="stroke: #A80036; stroke-width: 1.0;"/><path d="M1887,662.6836 L1887,672.6836 L1897,672.6836 L1887,662.6836 " fill="#FBFB77" style="stroke: #A80036; stroke-width: 1.0;"/><text fill="#000000" font-family="sans-serif" font-size="13" lengthAdjust="spacingAndGlyphs" textLength="426" x="1456" y="679.7505">This is to install the dependencies in the local node_modules folder</text><rect fill="#FEFECE" filter="url(#fc8m1gkw5t7xw)" height="33.9688" rx="12.5" ry="12.5" style="stroke: #A80036; stroke-width: 1.5;" width="441" x="989" y="658.2656"/><text fill="#000000" font-family="sans-serif" font-size="12" lengthAdjust="spacingAndGlyphs" textLength="350" x="999" y="679.4043">Open a terminal session, go to your local folder and run</text><text fill="#000000" font-family="sans-serif" font-size="12" font-style="italic" lengthAdjust="spacingAndGlyphs" textLength="67" x="1353" y="679.4043">npm install</text><rect fill="#FEFECE" filter="url(#fc8m1gkw5t7xw)" height="33.9688" rx="12.5" ry="12.5" style="stroke: #A80036; stroke-width: 1.5;" width="203" x="1108" y="712.2344"/><text fill="#000000" font-family="sans-serif" font-size="12" lengthAdjust="spacingAndGlyphs" textLength="183" x="1118" y="733.373">Add missions and sequences</text><path d="M10,763.0547 L10,803.3203 A0,0 0 0 0 10,803.3203 L780,803.3203 A0,0 0 0 0 780,803.3203 L780,787.1875 L800,783.1875 L780,779.1875 L780,773.0547 L770,763.0547 L10,763.0547 A0,0 0 0 0 10,763.0547 " fill="#FBFB77" filter="url(#fc8m1gkw5t7xw)" style="stroke: #A80036; stroke-width: 1.0;"/><path d="M770,763.0547 L770,773.0547 L780,773.0547 L770,763.0547 " fill="#FBFB77" style="stroke: #A80036; stroke-width: 1.0;"/><text fill="#000000" font-family="sans-serif" font-size="13" lengthAdjust="spacingAndGlyphs" textLength="334" x="16" y="780.1216">Delete the entry for yourmission from missions.json.</text><text fill="#000000" font-family="sans-serif" font-size="13" lengthAdjust="spacingAndGlyphs" textLength="749" x="16" y="795.2544">Delete the associated images/yourmission.svg and uml/yourmission.uml files from the sequences/yourmission folder.</text><rect fill="#FEFECE" filter="url(#fc8m1gkw5t7xw)" height="33.9688" rx="12.5" ry="12.5" style="stroke: #A80036; stroke-width: 1.5;" width="819" x="800" y="766.2031"/><text fill="#000000" font-family="sans-serif" font-size="12" lengthAdjust="spacingAndGlyphs" textLength="704" x="810" y="787.3418">Remove the sample mission and sequence, entitled Your mission, created when you created the instance of the</text><a href="https://github.com/dxc-technology/Sequences-as-Code" target="_top" title="Right click to open in a new window or a new tab" xlink:actuate="onRequest" xlink:href="https://github.com/dxc-technology/Sequences-as-Code" xlink:show="new" xlink:title="Right click to open in a new window or a new tab" xlink:type="simple"><text fill="#0000FF" font-family="sans-serif" font-size="12" lengthAdjust="spacingAndGlyphs" text-decoration="underline" textLength="91" x="1518" y="787.3418">SaC repository</text></a><rect fill="#FEFECE" filter="url(#fc8m1gkw5t7xw)" height="33.9688" rx="12.5" ry="12.5" style="stroke: #A80036; stroke-width: 1.5;" width="108" x="1155.5" y="823.3203"/><text fill="#000000" font-family="sans-serif" font-size="12" lengthAdjust="spacingAndGlyphs" textLength="88" x="1165.5" y="844.459">Run unit tests</text><rect fill="#FEFECE" filter="url(#fc8m1gkw5t7xw)" height="33.9688" rx="12.5" ry="12.5" style="stroke: #A80036; stroke-width: 1.5;" width="316" x="1051.5" y="877.2891"/><text fill="#000000" font-family="sans-serif" font-size="12" lengthAdjust="spacingAndGlyphs" textLength="296" x="1061.5" y="898.4277">Update any unit tests that need to be updated</text><rect fill="#FEFECE" filter="url(#fc8m1gkw5t7xw)" height="33.9688" rx="12.5" ry="12.5" style="stroke: #A80036; stroke-width: 1.5;" width="155" x="1132" y="931.2578"/><text fill="#000000" font-family="sans-serif" font-size="12" lengthAdjust="spacingAndGlyphs" textLength="135" x="1142" y="952.3965">Commit your changes</text><rect fill="#FEFECE" filter="url(#fc8m1gkw5t7xw)" height="33.9688" rx="12.5" ry="12.5" style="stroke: #A80036; stroke-width: 1.5;" width="62" x="1178.5" y="985.2266"/><text fill="#000000" font-family="sans-serif" font-size="12" lengthAdjust="spacingAndGlyphs" textLength="42" x="1188.5" y="1006.3652">Deploy</text><rect fill="#FEFECE" filter="url(#fc8m1gkw5t7xw)" height="33.9688" rx="12.5" ry="12.5" style="stroke: #A80036; stroke-width: 1.5;" width="615" x="902" y="1039.1953"/><text fill="#000000" font-family="sans-serif" font-size="12" lengthAdjust="spacingAndGlyphs" textLength="364" x="912" y="1060.334">Verify your site is up and running. It should be available at</text><a href="https://github.com/pages/your_organization/your_repository" target="_top" title="Right click to open in a new window or a new tab" xlink:actuate="onRequest" xlink:href="https://github.com/pages/your_organization/your_repository" xlink:show="new" xlink:title="Right click to open in a new window or a new tab" xlink:type="simple"><text fill="#0000FF" font-family="sans-serif" font-size="12" lengthAdjust="spacingAndGlyphs" text-decoration="underline" textLength="223" x="1280" y="1060.334">Your repositories GitHub pages site</text></a><text fill="#000000" font-family="sans-serif" font-size="12" lengthAdjust="spacingAndGlyphs" textLength="4" x="1503" y="1060.334">;</text><ellipse cx="1209.5" cy="1104.1641" fill="#FFFFFF" filter="url(#fc8m1gkw5t7xw)" rx="11" ry="11" style="stroke: #000000; stroke-width: 1.0;"/><ellipse cx="1209.5" cy="1104.1641" fill="#000000" rx="6" ry="6" style="stroke: #7F7F7F; stroke-width: 1.0;"/><line style="stroke: #A80036; stroke-width: 1.5;" x1="1209.5" x2="1209.5" y1="92.8594" y2="112.8594"/><polygon fill="#A80036" points="1205.5,102.8594,1209.5,112.8594,1213.5,102.8594,1209.5,106.8594" style="stroke: #A80036; stroke-width: 1.0;"/><line style="stroke: #A80036; stroke-width: 1.5;" x1="1209.5" x2="1209.5" y1="146.8281" y2="166.8281"/><polygon fill="#A80036" points="1205.5,156.8281,1209.5,166.8281,1213.5,156.8281,1209.5,160.8281" style="stroke: #A80036; stroke-width: 1.0;"/><line style="stroke: #A80036; stroke-width: 1.5;" x1="1209.5" x2="1209.5" y1="200.7969" y2="229.0781"/><polygon fill="#A80036" points="1205.5,219.0781,1209.5,229.0781,1213.5,219.0781,1209.5,223.0781" style="stroke: #A80036; stroke-width: 1.0;"/><line style="stroke: #A80036; stroke-width: 1.5;" x1="1209.5" x2="1209.5" y1="263.0469" y2="339.875"/><polygon fill="#A80036" points="1205.5,329.875,1209.5,339.875,1213.5,329.875,1209.5,333.875" style="stroke: #A80036; stroke-width: 1.0;"/><line style="stroke: #A80036; stroke-width: 1.5;" x1="1209.5" x2="1209.5" y1="373.8438" y2="442.3906"/><polygon fill="#A80036" points="1205.5,432.3906,1209.5,442.3906,1213.5,432.3906,1209.5,436.3906" style="stroke: #A80036; stroke-width: 1.0;"/><line style="stroke: #A80036; stroke-width: 1.5;" x1="1209.5" x2="1209.5" y1="476.3594" y2="496.3594"/><polygon fill="#A80036" points="1205.5,486.3594,1209.5,496.3594,1213.5,486.3594,1209.5,490.3594" style="stroke: #A80036; stroke-width: 1.0;"/><line style="stroke: #A80036; stroke-width: 1.5;" x1="1209.5" x2="1209.5" y1="530.3281" y2="550.3281"/><polygon fill="#A80036" points="1205.5,540.3281,1209.5,550.3281,1213.5,540.3281,1209.5,544.3281" style="stroke: #A80036; stroke-width: 1.0;"/><line style="stroke: #A80036; stroke-width: 1.5;" x1="1209.5" x2="1209.5" y1="584.2969" y2="604.2969"/><polygon fill="#A80036" points="1205.5,594.2969,1209.5,604.2969,1213.5,594.2969,1209.5,598.2969" style="stroke: #A80036; stroke-width: 1.0;"/><line style="stroke: #A80036; stroke-width: 1.5;" x1="1209.5" x2="1209.5" y1="638.2656" y2="658.2656"/><polygon fill="#A80036" points="1205.5,648.2656,1209.5,658.2656,1213.5,648.2656,1209.5,652.2656" style="stroke: #A80036; stroke-width: 1.0;"/><line style="stroke: #A80036; stroke-width: 1.5;" x1="1209.5" x2="1209.5" y1="692.2344" y2="712.2344"/><polygon fill="#A80036" points="1205.5,702.2344,1209.5,712.2344,1213.5,702.2344,1209.5,706.2344" style="stroke: #A80036; stroke-width: 1.0;"/><line style="stroke: #A80036; stroke-width: 1.5;" x1="1209.5" x2="1209.5" y1="746.2031" y2="766.2031"/><polygon fill="#A80036" points="1205.5,756.2031,1209.5,766.2031,1213.5,756.2031,1209.5,760.2031" style="stroke: #A80036; stroke-width: 1.0;"/><line style="stroke: #A80036; stroke-width: 1.5;" x1="1209.5" x2="1209.5" y1="800.1719" y2="823.3203"/><polygon fill="#A80036" points="1205.5,813.3203,1209.5,823.3203,1213.5,813.3203,1209.5,817.3203" style="stroke: #A80036; stroke-width: 1.0;"/><line style="stroke: #A80036; stroke-width: 1.5;" x1="1209.5" x2="1209.5" y1="857.2891" y2="877.2891"/><polygon fill="#A80036" points="1205.5,867.2891,1209.5,877.2891,1213.5,867.2891,1209.5,871.2891" style="stroke: #A80036; stroke-width: 1.0;"/><line style="stroke: #A80036; stroke-width: 1.5;" x1="1209.5" x2="1209.5" y1="911.2578" y2="931.2578"/><polygon fill="#A80036" points="1205.5,921.2578,1209.5,931.2578,1213.5,921.2578,1209.5,925.2578" style="stroke: #A80036; stroke-width: 1.0;"/><line style="stroke: #A80036; stroke-width: 1.5;" x1="1209.5" x2="1209.5" y1="965.2266" y2="985.2266"/><polygon fill="#A80036" points="1205.5,975.2266,1209.5,985.2266,1213.5,975.2266,1209.5,979.2266" style="stroke: #A80036; stroke-width: 1.0;"/><line style="stroke: #A80036; stroke-width: 1.5;" x1="1209.5" x2="1209.5" y1="1019.1953" y2="1039.1953"/><polygon fill="#A80036" points="1205.5,1029.1953,1209.5,1039.1953,1213.5,1029.1953,1209.5,1033.1953" style="stroke: #A80036; stroke-width: 1.0;"/><line style="stroke: #A80036; stroke-width: 1.5;" x1="1209.5" x2="1209.5" y1="1073.1641" y2="1093.1641"/><polygon fill="#A80036" points="1205.5,1083.1641,1209.5,1093.1641,1213.5,1083.1641,1209.5,1087.1641" style="stroke: #A80036; stroke-width: 1.0;"/><!--MD5=[4a4c0c107d03e3a20d2ee8194879eda5]
@startuml

title

  <font color=purple><b>SaC Help</b></font> - Create new dedicated instance of SaC

end title

start
:Start;
:Complete the prerequisites;
note left
 Prerequisites listed in a dedicated sequence diagram under the help menu.
end note
:Create and configure a new git repository;
note right
  Protect the master branch
  Enable branch protection rules
  Require reviews on PRs
  etc. etc.
end note
:Seed the repository with the current release of SaC, which is available at [[https://github.com/dxc-technology/Sequences-as-Code{Right click to open in a new window or a new tab} SaC repository]];
note left
  [[https://github.com/dxc-technology/Sequences-as-Code{Right click to open in a new window or a new tab} SaC repositories]] default pipeline includes
  - markdown spelling checks
  - dockerfile, json and js linting
  - basic unit tests with a high degree of coverage
  - coverage report
  - uml syntax validation
  - SVG diagrams generated from the sequence UML files and are committed to repository
  - code to deploy your site to the repositories GitHub pages site when the Master branch is updated.
end note
:Fork your newly created repository [[https://github.com/your_organization/your_repository{Right click to open in a new window or a new tab} Your repository]];
:Clone your fork on your local machine;
:Update the homepage value in the package.json file with the (case sensitive) address of your new repository;
note right
  The base url for generated site needs to be set correctly for your missions and sequences to render.
end note
:Find and replace all references to the [[https://github.com/dxc-technology/Sequences-as-Code{Right click to open in a new window or a new tab} SaC repository]] with the address of your instance of the repository;
note left
  You can ignore the references in the sample uml and svg files as you presumably will be replacing those files.
end note
:Open a terminal session, go to your local folder and run <i>npm install</i>;
note right
  This is to install the dependencies in the local node_modules folder
end note
:Add missions and sequences;
:Remove the sample mission and sequence, entitled Your mission, created when you created the instance of the [[https://github.com/dxc-technology/Sequences-as-Code{Right click to open in a new window or a new tab} SaC repository]];
note left
  Delete the entry for yourmission from missions.json.
  Delete the associated images/yourmission.svg and uml/yourmission.uml files from the sequences/yourmission folder.
end note
:Run unit tests;
:Update any unit tests that need to be updated;
:Commit your changes;
:Deploy;
:Verify your site is up and running. It should be available at [[https://github.com/pages/your_organization/your_repository{Right click to open in a new window or a new tab} Your repositories GitHub pages site]];;
stop
@enduml

PlantUML version 1.2020.05(Thu Mar 19 21:17:32 GMT 2020)
(GPL source distribution)
Java Runtime: OpenJDK Runtime Environment
JVM: OpenJDK 64-Bit Server VM
Java Version: 14-ea+33
Operating System: Linux
Default Encoding: UTF-8
Language: en
Country: US
--></g></svg>