<?xml version="1.0" encoding="UTF-8" standalone="no"?><svg xmlns="http://www.w3.org/2000/svg" xmlns:xlink="http://www.w3.org/1999/xlink" contentScriptType="application/ecmascript" contentStyleType="text/css" height="523px" preserveAspectRatio="none" style="width:1167px;height:523px;" version="1.1" viewBox="0 0 1167 523" width="1167px" zoomAndPan="magnify"><defs><filter height="300%" id="fh7ayj33fqqno" width="300%" x="-1" y="-1"><feGaussianBlur result="blurOut" stdDeviation="2.0"/><feColorMatrix in="blurOut" result="blurOut2" type="matrix" values="0 0 0 0 0 0 0 0 0 0 0 0 0 0 0 0 0 0 .4 0"/><feOffset dx="4.0" dy="4.0" in="blurOut2" result="blurOut3"/><feBlend in="SourceGraphic" in2="blurOut3" mode="normal"/></filter></defs><g><text fill="#000000" font-family="sans-serif" font-size="18" lengthAdjust="spacingAndGlyphs" textLength="0" x="585.5" y="26.708"/><text fill="#800080" font-family="sans-serif" font-size="18" font-weight="bold" lengthAdjust="spacingAndGlyphs" textLength="91" x="338.5" y="47.6611">SaC Help</text><text fill="#000000" font-family="sans-serif" font-size="18" lengthAdjust="spacingAndGlyphs" textLength="391" x="435.5" y="47.6611">- Publishing your mission(s) and sequence(s)</text><text fill="#000000" font-family="sans-serif" font-size="18" lengthAdjust="spacingAndGlyphs" textLength="0" x="585.5" y="68.6143"/><ellipse cx="435" cy="82.8594" fill="#000000" filter="url(#fh7ayj33fqqno)" rx="10" ry="10" style="stroke: none; stroke-width: 1.0;"/><rect fill="#FEFECE" filter="url(#fh7ayj33fqqno)" height="33.9688" rx="12.5" ry="12.5" style="stroke: #A80036; stroke-width: 1.5;" width="51" x="409.5" y="112.8594"/><text fill="#000000" font-family="sans-serif" font-size="12" lengthAdjust="spacingAndGlyphs" textLength="31" x="419.5" y="133.998">Start</text><rect fill="#FEFECE" filter="url(#fh7ayj33fqqno)" height="33.9688" rx="12.5" ry="12.5" style="stroke: #A80036; stroke-width: 1.5;" width="172" x="349" y="166.8281"/><text fill="#000000" font-family="sans-serif" font-size="12" lengthAdjust="spacingAndGlyphs" textLength="152" x="359" y="187.9668">Open a terminal session</text><path d="M10,225.2148 L10,250.3477 A0,0 0 0 0 10,250.3477 L225,250.3477 A0,0 0 0 0 225,250.3477 L225,243.2148 L245,237.7813 L225,235.2148 L225,235.2148 L215,225.2148 L10,225.2148 A0,0 0 0 0 10,225.2148 " fill="#FBFB77" filter="url(#fh7ayj33fqqno)" style="stroke: #A80036; stroke-width: 1.0;"/><path d="M215,225.2148 L215,235.2148 L225,235.2148 L215,225.2148 " fill="#FBFB77" style="stroke: #A80036; stroke-width: 1.0;"/><text fill="#000000" font-family="sans-serif" font-size="13" lengthAdjust="spacingAndGlyphs" textLength="94" x="16" y="242.2817">Clone will be of</text><a href="https://github.com/your_organization/your_repository" target="_top" title="Right click to open in a new window or a new tab" xlink:actuate="onRequest" xlink:href="https://github.com/your_organization/your_repository" xlink:show="new" xlink:title="Right click to open in a new window or a new tab" xlink:type="simple"><text fill="#0000FF" font-family="sans-serif" font-size="13" lengthAdjust="spacingAndGlyphs" text-decoration="underline" textLength="96" x="114" y="242.2817">Your repository</text></a><rect fill="#FEFECE" filter="url(#fh7ayj33fqqno)" height="33.9688" rx="12.5" ry="12.5" style="stroke: #A80036; stroke-width: 1.5;" width="380" x="245" y="220.7969"/><text fill="#000000" font-family="sans-serif" font-size="12" lengthAdjust="spacingAndGlyphs" textLength="360" x="255" y="241.9355">Go to your cloned copy of your dedicated instance of SaC</text><path d="M822,279.1836 L822,287.75 L802,291.75 L822,295.75 L822,304.3164 A0,0 0 0 0 822,304.3164 L1155,304.3164 A0,0 0 0 0 1155,304.3164 L1155,289.1836 L1145,279.1836 L822,279.1836 A0,0 0 0 0 822,279.1836 " fill="#FBFB77" filter="url(#fh7ayj33fqqno)" style="stroke: #A80036; stroke-width: 1.0;"/><path d="M1145,279.1836 L1145,289.1836 L1155,289.1836 L1145,279.1836 " fill="#FBFB77" style="stroke: #A80036; stroke-width: 1.0;"/><text fill="#000000" font-family="sans-serif" font-size="13" lengthAdjust="spacingAndGlyphs" textLength="312" x="828" y="296.2505">The package.json file is located in the root folder.</text><rect fill="#FEFECE" filter="url(#fh7ayj33fqqno)" height="33.9688" rx="12.5" ry="12.5" style="stroke: #A80036; stroke-width: 1.5;" width="734" x="68" y="274.7656"/><text fill="#000000" font-family="sans-serif" font-size="12" lengthAdjust="spacingAndGlyphs" textLength="714" x="78" y="295.9043">Verify the homepage value in the package.json file is set to the address of the repository for your instance of SaC</text><rect fill="#FEFECE" filter="url(#fh7ayj33fqqno)" height="33.9688" rx="12.5" ry="12.5" style="stroke: #A80036; stroke-width: 1.5;" width="405" x="232.5" y="328.7344"/><text fill="#000000" font-family="sans-serif" font-size="12" lengthAdjust="spacingAndGlyphs" textLength="385" x="242.5" y="349.873">Ensure all changes have been saved, committed and merged</text><rect fill="#FEFECE" filter="url(#fh7ayj33fqqno)" height="33.9688" rx="12.5" ry="12.5" style="stroke: #A80036; stroke-width: 1.5;" width="648" x="111" y="382.7031"/><text fill="#000000" font-family="sans-serif" font-size="12" lengthAdjust="spacingAndGlyphs" textLength="628" x="121" y="403.8418">If the pipeline hasn't deployed your site, deploy it manually by running the command npm run deploy</text><rect fill="#FEFECE" filter="url(#fh7ayj33fqqno)" height="33.9688" rx="12.5" ry="12.5" style="stroke: #A80036; stroke-width: 1.5;" width="544" x="163" y="436.6719"/><text fill="#000000" font-family="sans-serif" font-size="12" lengthAdjust="spacingAndGlyphs" textLength="148" x="173" y="457.8105">Site will be published to</text><a href="https://github.com/pages/your_organization/your_repository" target="_top" title="https://github.com/pages/your_organization/your_repository" xlink:actuate="onRequest" xlink:href="https://github.com/pages/your_organization/your_repository" xlink:show="new" xlink:title="https://github.com/pages/your_organization/your_repository" xlink:type="simple"><text fill="#0000FF" font-family="sans-serif" font-size="12" lengthAdjust="spacingAndGlyphs" text-decoration="underline" textLength="372" x="325" y="457.8105">https://github.com/pages/your_organization/your_repository</text></a><ellipse cx="435" cy="501.6406" fill="#FFFFFF" filter="url(#fh7ayj33fqqno)" rx="11" ry="11" style="stroke: #000000; stroke-width: 1.0;"/><ellipse cx="435" cy="501.6406" fill="#000000" rx="6" ry="6" style="stroke: #7F7F7F; stroke-width: 1.0;"/><line style="stroke: #A80036; stroke-width: 1.5;" x1="435" x2="435" y1="92.8594" y2="112.8594"/><polygon fill="#A80036" points="431,102.8594,435,112.8594,439,102.8594,435,106.8594" style="stroke: #A80036; stroke-width: 1.0;"/><line style="stroke: #A80036; stroke-width: 1.5;" x1="435" x2="435" y1="146.8281" y2="166.8281"/><polygon fill="#A80036" points="431,156.8281,435,166.8281,439,156.8281,435,160.8281" style="stroke: #A80036; stroke-width: 1.0;"/><line style="stroke: #A80036; stroke-width: 1.5;" x1="435" x2="435" y1="200.7969" y2="220.7969"/><polygon fill="#A80036" points="431,210.7969,435,220.7969,439,210.7969,435,214.7969" style="stroke: #A80036; stroke-width: 1.0;"/><line style="stroke: #A80036; stroke-width: 1.5;" x1="435" x2="435" y1="254.7656" y2="274.7656"/><polygon fill="#A80036" points="431,264.7656,435,274.7656,439,264.7656,435,268.7656" style="stroke: #A80036; stroke-width: 1.0;"/><line style="stroke: #A80036; stroke-width: 1.5;" x1="435" x2="435" y1="308.7344" y2="328.7344"/><polygon fill="#A80036" points="431,318.7344,435,328.7344,439,318.7344,435,322.7344" style="stroke: #A80036; stroke-width: 1.0;"/><line style="stroke: #A80036; stroke-width: 1.5;" x1="435" x2="435" y1="362.7031" y2="382.7031"/><polygon fill="#A80036" points="431,372.7031,435,382.7031,439,372.7031,435,376.7031" style="stroke: #A80036; stroke-width: 1.0;"/><line style="stroke: #A80036; stroke-width: 1.5;" x1="435" x2="435" y1="416.6719" y2="436.6719"/><polygon fill="#A80036" points="431,426.6719,435,436.6719,439,426.6719,435,430.6719" style="stroke: #A80036; stroke-width: 1.0;"/><line style="stroke: #A80036; stroke-width: 1.5;" x1="435" x2="435" y1="470.6406" y2="490.6406"/><polygon fill="#A80036" points="431,480.6406,435,490.6406,439,480.6406,435,484.6406" style="stroke: #A80036; stroke-width: 1.0;"/><!--MD5=[f42e9e2432deb2c4bc3063edbe344520]
@startuml

title

  <font color=purple><b>SaC Help</b></font> - Publishing your mission(s) and sequence(s)

end title

start
:Start;
:Open a terminal session;
:Go to your cloned copy of your dedicated instance of SaC;
note left
 Clone will be of [[https://github.com/your_organization/your_repository{Right click to open in a new window or a new tab} Your repository]]
end note
:Verify the homepage value in the package.json file is set to the address of the repository for your instance of SaC;
note right
  The package.json file is located in the root folder.
end note
:Ensure all changes have been saved, committed and merged;
:If the pipeline hasn't deployed your site, deploy it manually by running the command npm run deploy;
:Site will be published to [[https://github.com/pages/your_organization/your_repository https://github.com/pages/your_organization/your_repository]];
stop
@enduml

PlantUML version 1.2019.11(Sun Sep 22 10:02:15 GMT 2019)
(GPL source distribution)
Java Runtime: OpenJDK Runtime Environment
JVM: OpenJDK 64-Bit Server VM
Java Version: 14-ea+15
Operating System: Linux
Default Encoding: UTF-8
Language: en
Country: US
--></g></svg>