<?xml version="1.0" encoding="UTF-8" standalone="no"?><svg xmlns="http://www.w3.org/2000/svg" xmlns:xlink="http://www.w3.org/1999/xlink" contentScriptType="application/ecmascript" contentStyleType="text/css" height="577px" preserveAspectRatio="none" style="width:1213px;height:577px;" version="1.1" viewBox="0 0 1213 577" width="1213px" zoomAndPan="magnify"><defs><filter height="300%" id="f11qdgv40xjj42" width="300%" x="-1" y="-1"><feGaussianBlur result="blurOut" stdDeviation="2.0"/><feColorMatrix in="blurOut" result="blurOut2" type="matrix" values="0 0 0 0 0 0 0 0 0 0 0 0 0 0 0 0 0 0 .4 0"/><feOffset dx="4.0" dy="4.0" in="blurOut2" result="blurOut3"/><feBlend in="SourceGraphic" in2="blurOut3" mode="normal"/></filter></defs><g><text fill="#000000" font-family="sans-serif" font-size="18" lengthAdjust="spacingAndGlyphs" textLength="0" x="608.75" y="26.708"/><text fill="#800080" font-family="sans-serif" font-size="18" font-weight="bold" lengthAdjust="spacingAndGlyphs" textLength="91" x="348.75" y="47.6611">SaC Help</text><text fill="#000000" font-family="sans-serif" font-size="18" lengthAdjust="spacingAndGlyphs" textLength="417" x="445.75" y="47.6611">- Run an instance of SaC on your local machine</text><text fill="#000000" font-family="sans-serif" font-size="18" lengthAdjust="spacingAndGlyphs" textLength="0" x="608.75" y="68.6143"/><ellipse cx="604.5" cy="82.8594" fill="#000000" filter="url(#f11qdgv40xjj42)" rx="10" ry="10" style="stroke: none; stroke-width: 1.0;"/><path d="M10,117.2773 L10,142.4102 A0,0 0 0 0 10,142.4102 L559,142.4102 A0,0 0 0 0 559,142.4102 L559,135.2773 L579,129.8438 L559,127.2773 L559,127.2773 L549,117.2773 L10,117.2773 A0,0 0 0 0 10,117.2773 " fill="#FBFB77" filter="url(#f11qdgv40xjj42)" style="stroke: #A80036; stroke-width: 1.0;"/><path d="M549,117.2773 L549,127.2773 L559,127.2773 L549,117.2773 " fill="#FBFB77" style="stroke: #A80036; stroke-width: 1.0;"/><text fill="#000000" font-family="sans-serif" font-size="13" lengthAdjust="spacingAndGlyphs" textLength="528" x="16" y="134.3442">When creating sequences you may want to run the application locally to test them.</text><rect fill="#FEFECE" filter="url(#f11qdgv40xjj42)" height="33.9688" rx="12.5" ry="12.5" style="stroke: #A80036; stroke-width: 1.5;" width="51" x="579" y="112.8594"/><text fill="#000000" font-family="sans-serif" font-size="12" lengthAdjust="spacingAndGlyphs" textLength="31" x="589" y="133.998">Start</text><rect fill="#FEFECE" filter="url(#f11qdgv40xjj42)" height="33.9688" rx="12.5" ry="12.5" style="stroke: #A80036; stroke-width: 1.5;" width="172" x="518.5" y="166.8281"/><text fill="#000000" font-family="sans-serif" font-size="12" lengthAdjust="spacingAndGlyphs" textLength="152" x="528.5" y="187.9668">Open a terminal session</text><path d="M179.5,225.2148 L179.5,250.3477 A0,0 0 0 0 179.5,250.3477 L394.5,250.3477 A0,0 0 0 0 394.5,250.3477 L394.5,243.2148 L414.5,237.7813 L394.5,235.2148 L394.5,235.2148 L384.5,225.2148 L179.5,225.2148 A0,0 0 0 0 179.5,225.2148 " fill="#FBFB77" filter="url(#f11qdgv40xjj42)" style="stroke: #A80036; stroke-width: 1.0;"/><path d="M384.5,225.2148 L384.5,235.2148 L394.5,235.2148 L384.5,225.2148 " fill="#FBFB77" style="stroke: #A80036; stroke-width: 1.0;"/><text fill="#000000" font-family="sans-serif" font-size="13" lengthAdjust="spacingAndGlyphs" textLength="94" x="185.5" y="242.2817">Clone will be of</text><a href="https://github.com/your_organization/your_repository" target="_top" title="Right click to open in a new window or a new tab" xlink:actuate="onRequest" xlink:href="https://github.com/your_organization/your_repository" xlink:show="new" xlink:title="Right click to open in a new window or a new tab" xlink:type="simple"><text fill="#0000FF" font-family="sans-serif" font-size="13" lengthAdjust="spacingAndGlyphs" text-decoration="underline" textLength="96" x="283.5" y="242.2817">Your repository</text></a><rect fill="#FEFECE" filter="url(#f11qdgv40xjj42)" height="33.9688" rx="12.5" ry="12.5" style="stroke: #A80036; stroke-width: 1.5;" width="380" x="414.5" y="220.7969"/><text fill="#000000" font-family="sans-serif" font-size="12" lengthAdjust="spacingAndGlyphs" textLength="360" x="424.5" y="241.9355">Go to your cloned copy of your dedicated instance of SaC</text><rect fill="#FEFECE" filter="url(#f11qdgv40xjj42)" height="33.9688" rx="12.5" ry="12.5" style="stroke: #A80036; stroke-width: 1.5;" width="397" x="406" y="274.7656"/><text fill="#000000" font-family="sans-serif" font-size="12" lengthAdjust="spacingAndGlyphs" textLength="377" x="416" y="295.9043">Lint to verify react code is syntactically correct - npm run lint</text><rect fill="#FEFECE" filter="url(#f11qdgv40xjj42)" height="33.9688" rx="12.5" ry="12.5" style="stroke: #A80036; stroke-width: 1.5;" width="176" x="516.5" y="328.7344"/><text fill="#000000" font-family="sans-serif" font-size="12" lengthAdjust="spacingAndGlyphs" textLength="156" x="526.5" y="349.873">Run unit tests - npm test</text><rect fill="#FEFECE" filter="url(#f11qdgv40xjj42)" height="33.9688" rx="12.5" ry="12.5" style="stroke: #A80036; stroke-width: 1.5;" width="271" x="469" y="382.7031"/><text fill="#000000" font-family="sans-serif" font-size="12" lengthAdjust="spacingAndGlyphs" textLength="251" x="479" y="403.8418">Verify test coverage - npm run coverage</text><rect fill="#FEFECE" filter="url(#f11qdgv40xjj42)" height="33.9688" rx="12.5" ry="12.5" style="stroke: #A80036; stroke-width: 1.5;" width="159" x="525" y="436.6719"/><text fill="#000000" font-family="sans-serif" font-size="12" lengthAdjust="spacingAndGlyphs" textLength="139" x="535" y="457.8105">Run locally - npm start</text><path d="M809.5,495.0586 L809.5,503.625 L789.5,507.625 L809.5,511.625 L809.5,520.1914 A0,0 0 0 0 809.5,520.1914 L1201.5,520.1914 A0,0 0 0 0 1201.5,520.1914 L1201.5,505.0586 L1191.5,495.0586 L809.5,495.0586 A0,0 0 0 0 809.5,495.0586 " fill="#FBFB77" filter="url(#f11qdgv40xjj42)" style="stroke: #A80036; stroke-width: 1.0;"/><path d="M1191.5,495.0586 L1191.5,505.0586 L1201.5,505.0586 L1191.5,495.0586 " fill="#FBFB77" style="stroke: #A80036; stroke-width: 1.0;"/><text fill="#000000" font-family="sans-serif" font-size="13" lengthAdjust="spacingAndGlyphs" textLength="371" x="815.5" y="512.1255">Assuming of course the linting and testing was successful.</text><rect fill="#FEFECE" filter="url(#f11qdgv40xjj42)" height="33.9688" rx="12.5" ry="12.5" style="stroke: #A80036; stroke-width: 1.5;" width="370" x="419.5" y="490.6406"/><text fill="#000000" font-family="sans-serif" font-size="12" lengthAdjust="spacingAndGlyphs" textLength="211" x="433.5" y="511.7793">application should be available at</text><a href="http://localhost:3000" target="_top" title="Right click to open the Local Instance in a new window or a new tab" xlink:actuate="onRequest" xlink:href="http://localhost:3000" xlink:show="new" xlink:title="Right click to open the Local Instance in a new window or a new tab" xlink:type="simple"><text fill="#0000FF" font-family="sans-serif" font-size="12" lengthAdjust="spacingAndGlyphs" text-decoration="underline" textLength="131" x="648.5" y="511.7793">http://localhost:3000</text></a><ellipse cx="604.5" cy="555.6094" fill="#FFFFFF" filter="url(#f11qdgv40xjj42)" rx="11" ry="11" style="stroke: #000000; stroke-width: 1.0;"/><ellipse cx="604.5" cy="555.6094" fill="#000000" rx="6" ry="6" style="stroke: #7F7F7F; stroke-width: 1.0;"/><line style="stroke: #A80036; stroke-width: 1.5;" x1="604.5" x2="604.5" y1="92.8594" y2="112.8594"/><polygon fill="#A80036" points="600.5,102.8594,604.5,112.8594,608.5,102.8594,604.5,106.8594" style="stroke: #A80036; stroke-width: 1.0;"/><line style="stroke: #A80036; stroke-width: 1.5;" x1="604.5" x2="604.5" y1="146.8281" y2="166.8281"/><polygon fill="#A80036" points="600.5,156.8281,604.5,166.8281,608.5,156.8281,604.5,160.8281" style="stroke: #A80036; stroke-width: 1.0;"/><line style="stroke: #A80036; stroke-width: 1.5;" x1="604.5" x2="604.5" y1="200.7969" y2="220.7969"/><polygon fill="#A80036" points="600.5,210.7969,604.5,220.7969,608.5,210.7969,604.5,214.7969" style="stroke: #A80036; stroke-width: 1.0;"/><line style="stroke: #A80036; stroke-width: 1.5;" x1="604.5" x2="604.5" y1="254.7656" y2="274.7656"/><polygon fill="#A80036" points="600.5,264.7656,604.5,274.7656,608.5,264.7656,604.5,268.7656" style="stroke: #A80036; stroke-width: 1.0;"/><line style="stroke: #A80036; stroke-width: 1.5;" x1="604.5" x2="604.5" y1="308.7344" y2="328.7344"/><polygon fill="#A80036" points="600.5,318.7344,604.5,328.7344,608.5,318.7344,604.5,322.7344" style="stroke: #A80036; stroke-width: 1.0;"/><line style="stroke: #A80036; stroke-width: 1.5;" x1="604.5" x2="604.5" y1="362.7031" y2="382.7031"/><polygon fill="#A80036" points="600.5,372.7031,604.5,382.7031,608.5,372.7031,604.5,376.7031" style="stroke: #A80036; stroke-width: 1.0;"/><line style="stroke: #A80036; stroke-width: 1.5;" x1="604.5" x2="604.5" y1="416.6719" y2="436.6719"/><polygon fill="#A80036" points="600.5,426.6719,604.5,436.6719,608.5,426.6719,604.5,430.6719" style="stroke: #A80036; stroke-width: 1.0;"/><line style="stroke: #A80036; stroke-width: 1.5;" x1="604.5" x2="604.5" y1="470.6406" y2="490.6406"/><polygon fill="#A80036" points="600.5,480.6406,604.5,490.6406,608.5,480.6406,604.5,484.6406" style="stroke: #A80036; stroke-width: 1.0;"/><line style="stroke: #A80036; stroke-width: 1.5;" x1="604.5" x2="604.5" y1="524.6094" y2="544.6094"/><polygon fill="#A80036" points="600.5,534.6094,604.5,544.6094,608.5,534.6094,604.5,538.6094" style="stroke: #A80036; stroke-width: 1.0;"/><!--MD5=[c7db3cddc6baf6cae56e861c594c52c8]
@startuml

title

  <font color=purple><b>SaC Help</b></font> - Run an instance of SaC on your local machine

end title

start
:Start;
note left
  When creating sequences you may want to run the application locally to test them.
end note
:Open a terminal session;
:Go to your cloned copy of your dedicated instance of SaC;
note left
 Clone will be of [[https://github.com/your_organization/your_repository{Right click to open in a new window or a new tab} Your repository]]
end note
:Lint to verify react code is syntactically correct - npm run lint;
:Run unit tests - npm test;
:Verify test coverage - npm run coverage;
:Run locally - npm start;
: application should be available at [[http://localhost:3000{Right click to open the Local Instance in a new window or a new tab} http://localhost:3000]];
note right
  Assuming of course the linting and testing was successful.
end note
stop
@enduml

PlantUML version 1.2020.05(Thu Mar 19 21:17:32 GMT 2020)
(GPL source distribution)
Java Runtime: OpenJDK Runtime Environment
JVM: OpenJDK 64-Bit Server VM
Java Version: 14-ea+33
Operating System: Linux
Default Encoding: UTF-8
Language: en
Country: US
--></g></svg>